<svg width="380" height="250" viewBox="0 0 380 250" fill="none" xmlns="http://www.w3.org/2000/svg">
<path fill-rule="evenodd" clip-rule="evenodd" d="M177.826 83.9971C177.91 82.79 178.274 71.5262 178.916 50.2057C179.077 44.8693 175.381 40.1889 170.152 39.1088C169.802 39.0364 169.626 39.0002 169.626 39.0002C163.316 38.5589 157.699 42.9752 156.639 49.2117L151.229 81.0485" fill="white"/>
<path d="M169.687 39.245L170.196 39.3501C175.302 40.4049 178.912 44.9756 178.755 50.1869C178.112 71.4929 177.749 82.7667 177.665 83.9681C177.655 84.11 177.762 84.2332 177.904 84.2431C178.046 84.253 178.169 84.146 178.179 84.004C178.263 82.7913 178.627 71.5375 179.27 50.2024C179.434 44.741 175.651 39.9508 170.3 38.8455L169.774 38.7368L169.74 38.7321C163.298 38.2816 157.563 42.7904 156.481 49.1575L151.071 80.9943C151.047 81.1346 151.141 81.2677 151.281 81.2915C151.422 81.3153 151.555 81.221 151.579 81.0807L156.989 49.2439C158.026 43.1436 163.516 38.8222 169.687 39.245Z" fill="#F56843"/>
<path fill-rule="evenodd" clip-rule="evenodd" d="M182.022 81.195L184.787 59.7036C185.053 57.6346 183.591 55.7416 181.522 55.4754C181.362 55.4549 181.201 55.4446 181.04 55.4446C178.479 55.4446 176.208 57.0917 175.413 59.5264L168.33 81.2093L182.022 81.195Z" fill="white"/>
<path d="M182.244 81.2952C182.373 81.295 182.483 81.1988 182.499 81.0704L185.263 59.579C185.548 57.3688 183.987 55.3467 181.776 55.0624C181.606 55.0404 181.434 55.0294 181.262 55.0294C178.589 55.0294 176.219 56.7482 175.389 59.2889L168.306 80.9718C168.252 81.1384 168.376 81.3094 168.551 81.3094L182.244 81.2952ZM182.017 80.7801L168.906 80.7938L175.879 59.4489C176.64 57.1202 178.812 55.5447 181.262 55.5447C181.412 55.5447 181.562 55.5543 181.711 55.5735C183.639 55.8215 185 57.5853 184.752 59.5132L182.017 80.7801Z" fill="#F56843"/>
<path fill-rule="evenodd" clip-rule="evenodd" d="M113.88 133.941L140.116 125.389C143.09 124.42 145.259 121.851 145.717 118.757L151.325 80.8658H181.727L176.348 129.011C175.401 137.491 170.833 145.148 163.82 150.009L133.977 170.699L113.88 133.941Z" fill="#FFD1D1"/>
<path fill-rule="evenodd" clip-rule="evenodd" d="M176.918 124.666C170.849 127.987 166.44 131.766 163.692 136.002C160.944 140.239 158.596 146.595 156.649 155.068C158.33 153.842 159.762 152.812 160.944 151.977C165.782 148.557 169.502 145.446 171.765 141.842C174.856 136.918 176.574 131.193 176.918 124.666Z" fill="#FFAFAF"/>
<path d="M143.894 122.465C143.897 122.461 143.899 122.458 143.901 122.455C143.908 122.445 143.915 122.437 143.922 122.429C144.75 121.363 145.311 120.085 145.516 118.698L151.118 80.8424C151.137 80.716 151.246 80.6224 151.373 80.6224H181.776C181.929 80.6224 182.049 80.756 182.032 80.9087L179.696 101.818C179.735 101.868 179.757 101.933 179.751 102.002C179.744 102.074 179.708 102.137 179.655 102.18L176.656 129.024C175.698 137.596 171.074 145.332 163.977 150.234L134.295 170.739C134.199 170.805 134.072 170.799 133.983 170.725C129.898 167.318 126.499 162.997 123.785 157.763C121.079 152.543 118.039 144.457 114.664 133.502C114.623 133.367 114.698 133.223 114.832 133.18L140.042 125.138C141.595 124.643 142.925 123.698 143.894 122.465ZM123.299 131.02L115.232 133.594C118.569 144.399 121.573 152.378 124.243 157.526C126.892 162.636 130.199 166.861 134.163 170.203L141.728 164.978L123.299 131.02ZM123.798 130.861L142.154 164.683L163.684 149.81C170.658 144.993 175.202 137.39 176.144 128.967L179.134 102.205L148.897 99.487C148.891 99.4865 148.886 99.4858 148.88 99.4849L146.026 118.774C145.819 120.167 145.277 121.456 144.476 122.55L162.468 135.449C162.583 135.532 162.61 135.693 162.527 135.809C162.444 135.925 162.283 135.951 162.168 135.868L144.159 122.957C143.141 124.184 141.778 125.125 140.199 125.629L123.798 130.861ZM148.956 98.9749L179.191 101.693L181.488 81.1377H151.596L148.956 98.9749Z" fill="#F56843"/>
<path fill-rule="evenodd" clip-rule="evenodd" d="M66.6447 139.266C66.6447 139.266 58.629 143.446 42.5977 151.805L49.4196 164.329L70.08 150.416C67.7898 142.983 66.6447 139.266 66.6447 139.266Z" fill="#FFAFAF"/>
<path fill-rule="evenodd" clip-rule="evenodd" d="M226.042 196.12L221.061 155.583L223.638 154.381L234.287 138.579L236.177 138.063C236.86 137.9 237.375 137.9 237.722 138.063C238.069 138.227 238.528 138.685 239.097 139.438V187.532C238.718 188.441 238.375 189.071 238.066 189.421C237.757 189.771 237.242 190.115 236.52 190.452L226.042 196.12ZM180.181 231.847L212.816 219.824L214.362 224.289L235.661 229.786L236.52 231.332C236.326 232.467 236.097 233.269 235.833 233.736C235.569 234.204 235.053 234.719 234.287 235.282L189.8 245.76C188.88 245.852 188.135 245.738 187.567 245.416C186.999 245.095 186.426 244.465 185.849 243.527L180.181 231.847Z" fill="white"/>
<path d="M66.4025 139.052L42.3554 151.591C42.2276 151.657 42.1793 151.816 42.2482 151.942L49.0702 164.467C49.1428 164.6 49.3144 164.642 49.4404 164.557L70.1008 150.644C70.195 150.581 70.2365 150.463 70.2031 150.355L66.7678 139.204C66.7204 139.051 66.5452 138.977 66.4025 139.052ZM69.6544 150.324L49.3873 163.972L42.8263 151.926L66.3664 139.652L69.6544 150.324Z" fill="#F56843"/>
<path fill-rule="evenodd" clip-rule="evenodd" d="M140.332 181.864V182.393L116.8 136.861L83.4775 150.946C84.0986 171.281 86.9452 184.793 92.0172 191.483C97.0892 198.172 106.094 200.29 119.033 197.838H137.755L140.332 181.864Z" fill="#FFD1D1"/>
<path d="M140.638 181.863V182.393C140.638 182.492 140.589 182.567 140.521 182.61L138.058 197.879C138.038 198.003 137.93 198.095 137.804 198.095H119.105C106.093 200.557 96.998 198.414 91.8602 191.638C86.7466 184.894 83.891 171.339 83.2682 150.954C83.2652 150.847 83.3276 150.75 83.4256 150.708L116.748 136.624C116.872 136.571 117.015 136.623 117.077 136.743L140.274 181.626C140.426 181.562 140.638 181.649 140.638 181.863ZM140.571 182.294L140.583 182.224L140.544 182.149C140.567 182.194 140.577 182.244 140.571 182.294ZM116.729 137.191L83.7889 151.114C84.4195 171.301 87.2551 184.712 92.2709 191.327C97.274 197.925 106.181 200.02 119.033 197.584L119.081 197.58H137.584L140.047 182.31L116.729 137.191Z" fill="#F56843"/>
<path fill-rule="evenodd" clip-rule="evenodd" d="M134.148 170.699L135.866 173.963C130.588 178.126 126.408 181.046 123.327 182.723C120.246 184.399 116.868 185.945 113.193 187.36L111.132 183.753C114.482 182.307 117.688 180.704 120.751 178.944C123.813 177.184 128.279 174.436 134.148 170.699Z" fill="#FFAFAF"/>
<path fill-rule="evenodd" clip-rule="evenodd" d="M144.283 240.607L225.699 196.464L221.233 155.755L140.504 195.433" fill="#FFAFAF"/>
<path d="M134.004 170.314C127.965 174.384 123.276 177.358 119.937 179.234C116.606 181.107 113.471 182.532 110.535 183.509C110.4 183.554 110.327 183.699 110.372 183.834C110.417 183.969 110.563 184.043 110.698 183.998C113.667 183.01 116.831 181.572 120.19 179.684C123.543 177.799 128.243 174.819 134.292 170.741C134.41 170.661 134.442 170.501 134.362 170.383C134.283 170.265 134.122 170.234 134.004 170.314Z" fill="#F56843"/>
<path d="M135.834 173.757C130.227 178.009 125.33 181.265 121.144 183.526C116.976 185.778 114.134 186.971 112.655 187.104C112.513 187.116 112.409 187.241 112.421 187.383C112.434 187.525 112.559 187.629 112.701 187.617C114.275 187.476 117.158 186.265 121.389 183.98C125.601 181.705 130.519 178.434 136.145 174.168C136.259 174.082 136.281 173.92 136.195 173.807C136.109 173.693 135.947 173.671 135.834 173.757Z" fill="#F56843"/>
<path d="M225.51 196.231C225.501 196.209 225.495 196.185 225.492 196.161L221.027 155.981L140.495 195.664C140.367 195.727 140.213 195.674 140.15 195.547C140.087 195.419 140.139 195.265 140.267 195.202L223.168 154.352L233.773 138.717C234.146 138.167 234.771 137.842 235.436 137.851C235.672 137.854 235.897 137.899 236.106 137.978C236.12 137.954 236.143 137.925 236.177 137.892C236.291 137.777 236.425 137.705 236.579 137.674C236.733 137.643 236.891 137.628 237.048 137.627C238.382 137.625 239.465 138.705 239.467 140.039L239.539 186.176C239.543 188.16 238.554 190.113 236.655 190.592L236.655 190.627C236.654 190.72 236.602 190.806 236.52 190.85L144.282 240.834C144.157 240.901 144.001 240.855 143.933 240.73C143.865 240.605 143.912 240.448 144.037 240.381L225.51 196.231ZM225.989 195.971L236.142 190.469L236.868 139.847C236.879 139.041 236.235 138.378 235.429 138.366C234.937 138.359 234.475 138.6 234.2 139.007L223.556 154.698C223.531 154.735 223.497 154.764 223.457 154.784L221.47 155.763C221.507 155.802 221.532 155.853 221.538 155.911L225.989 195.971ZM236.636 138.279C237.099 138.647 237.392 139.218 237.383 139.854L236.663 190.056C238.244 189.576 239.027 187.877 239.024 186.177L238.952 140.04C238.95 138.99 238.099 138.141 237.049 138.143C236.925 138.143 236.801 138.155 236.68 138.18C236.664 138.217 236.65 138.251 236.636 138.279Z" fill="#F56843"/>
<path fill-rule="evenodd" clip-rule="evenodd" d="M79.3555 190.121L81.9806 204.377L101.56 238.936C106.711 248.029 117.692 252.05 127.498 248.435L134.361 245.905C140.963 243.471 146.658 239.068 150.677 233.292L168.412 207.8L180.181 231.847L212.817 219.824L189.874 165.564C187.36 159.619 181.532 155.755 175.077 155.755C168.257 155.755 161.714 158.457 156.882 163.27L126.124 193.9" fill="#FFD1D1"/>
<path fill-rule="evenodd" clip-rule="evenodd" d="M155.619 164.515C161.116 168.752 166.841 171.787 172.796 173.619C178.75 175.451 185.334 175.05 192.549 172.417C190.938 167.082 189.163 163.36 187.224 161.252C184.913 158.74 180.605 156.504 178.12 155.927C174.86 155.17 168.84 156.046 164.036 158.332C161.724 159.432 158.919 161.493 155.619 164.515Z" fill="#FFAFAF"/>
<path d="M236.438 230.778L236.531 230.755L236.535 230.771C237.07 232.99 235.704 235.223 233.485 235.758L190.577 246.102C188.64 246.569 186.639 245.677 185.686 243.941C185.605 243.928 185.532 243.876 185.494 243.799L168.372 208.297L150.888 233.427C146.839 239.246 141.101 243.682 134.45 246.134L127.587 248.664C117.663 252.323 106.549 248.253 101.335 239.05L81.7563 204.492C81.7421 204.467 81.7323 204.44 81.7271 204.412L79.102 190.155C79.0762 190.015 79.1687 189.881 79.3087 189.855C79.4486 189.829 79.583 189.922 79.6087 190.062L82.226 204.276L101.784 238.796C106.873 247.779 117.722 251.752 127.409 248.181L134.271 245.651C140.824 243.235 146.476 238.865 150.465 233.133L168.2 207.641C168.313 207.479 168.558 207.498 168.644 207.676L180.172 231.576L212.439 219.688L193.075 173.814V173.814C181.616 179.4 168.808 176.72 154.682 165.811L126.306 194.07C126.205 194.17 126.042 194.17 125.941 194.069C125.841 193.968 125.841 193.805 125.942 193.705L156.7 163.075C161.581 158.214 168.189 155.485 175.077 155.485C181.635 155.485 187.555 159.412 190.105 165.454L212.967 219.614C213.007 219.643 213.04 219.684 213.058 219.735C213.074 219.777 213.078 219.821 213.071 219.862L214.77 223.887L234.95 228.982C235.671 229.164 236.229 229.736 236.393 230.461C236.417 230.567 236.432 230.673 236.438 230.778ZM236.128 231.964C235.858 232.385 235.429 232.704 234.902 232.824L186.222 243.839C187.092 245.275 188.801 246 190.456 245.601L233.364 235.257C234.947 234.875 236.033 233.508 236.128 231.964ZM180.396 232.043L185.869 243.39L234.788 232.321C235.575 232.143 236.068 231.361 235.89 230.575C235.769 230.039 235.357 229.616 234.824 229.481L214.52 224.355C214.442 224.335 214.377 224.28 214.346 224.206L212.639 220.164L180.396 232.043ZM192.874 173.338L189.63 165.654C187.161 159.804 181.428 156.001 175.077 156.001C168.325 156.001 161.848 158.676 157.063 163.44L155.05 165.445C169.023 176.217 181.62 178.837 192.874 173.338V173.338Z" fill="#F56843"/>
<path fill-rule="evenodd" clip-rule="evenodd" d="M96.1886 133.426L31.9426 174.455C17.329 183.788 11.9611 202.547 19.4262 218.197L24.0334 227.856C32.2016 244.981 52.7053 252.241 69.8295 244.073C70.744 243.636 71.6388 243.16 72.5111 242.645L101.902 225.284C107.375 222.051 111.844 217.362 114.812 211.74L115.169 211.064C118.244 205.237 118.34 198.29 115.427 192.381L108.212 177.741C97.5023 185.726 91.7196 191.223 90.8638 194.231C90.1008 196.913 81.3683 202.439 64.6663 210.809C61.0438 212.624 56.6346 211.352 54.5356 207.886C52.8496 205.102 53.7396 201.479 56.5234 199.793C56.8416 199.6 57.1774 199.438 57.5262 199.309L88.8027 187.704" fill="#FFD1D1"/>
<path fill-rule="evenodd" clip-rule="evenodd" d="M18.5505 216.56C19.4093 218.965 23.1385 226.493 24.5623 228.927C26.0602 231.488 27.654 233.908 29.7152 236.313C31.7563 238.694 34.5026 241.049 38.647 243.184C40.0336 243.898 41.5223 244.642 43.1129 245.417C42.043 236.389 40.8407 230.091 39.5058 226.522C38.4236 223.629 37.3229 220.729 35.727 218.449C31.7191 212.724 25.2413 206.937 16.2934 201.087C15.5079 204.99 16.2603 210.147 18.5505 216.56Z" fill="#FFAFAF"/>
<path fill-rule="evenodd" clip-rule="evenodd" d="M92.0659 190.967L92.4094 195.433C96.5426 203.257 99.0838 207.98 100.033 209.603C101.032 211.31 103.013 215.519 105.979 222.229C109.302 219.35 111.936 216.373 113.88 213.297C115.824 210.22 117.027 207.129 117.487 204.021C117.945 199.899 116.8 195.261 114.052 190.108C112.681 187.538 110.677 183.244 108.04 177.226C100.565 181.184 95.3552 184.448 92.4094 187.017C89.4636 189.586 89.3491 190.903 92.0659 190.967Z" fill="white"/>
<path d="M115.073 192.337C117.949 198.173 117.854 205.033 114.818 210.786L114.461 211.462C111.516 217.042 107.08 221.696 101.648 224.905L72.152 242.327C71.3179 242.82 70.4632 243.277 69.5903 243.697C52.6209 251.859 32.2477 244.719 24.0856 227.75L19.6491 218.526C12.2315 203.104 17.3945 184.573 31.7178 175.209L95.2991 133.642C95.4182 133.564 95.4516 133.404 95.3737 133.285C95.2959 133.166 95.1362 133.132 95.0171 133.21L31.4358 174.778C16.896 184.284 11.655 203.094 19.1847 218.749L23.6213 227.973C31.9067 245.199 52.5877 252.447 69.8136 244.161C70.6998 243.735 71.5674 243.271 72.414 242.771L101.91 225.348C107.424 222.091 111.927 217.367 114.916 211.703L115.273 211.026C118.387 205.127 118.484 198.093 115.535 192.11L108.32 177.47C108.259 177.345 108.11 177.292 107.984 177.349C99.441 181.179 94.1992 184.045 92.2296 185.974C91.3291 186.855 90.8296 187.97 90.6253 189.321C90.4979 190.163 90.4887 190.891 90.5407 192.192C90.5864 193.336 90.5829 193.687 90.493 194.003C89.7615 196.574 81.0182 202.107 64.4278 210.421C60.9254 212.176 56.6624 210.946 54.6329 207.595C53.0456 204.974 53.8835 201.563 56.5045 199.975C56.8272 199.78 57.1691 199.618 57.5247 199.492L90.0912 187.946C90.2254 187.899 90.2955 187.752 90.248 187.617C90.2004 187.483 90.0532 187.413 89.9191 187.461L57.3526 199.006C56.9639 199.144 56.5903 199.321 56.2375 199.535C53.3732 201.269 52.4574 204.998 54.1922 207.862C56.3607 211.443 60.9161 212.757 64.6587 210.881C81.4723 202.456 90.1941 196.937 90.9886 194.144C91.1007 193.75 91.1043 193.391 91.0556 192.172C91.0048 190.901 91.0137 190.198 91.1348 189.398C91.3236 188.15 91.7772 187.138 92.5901 186.342C94.4826 184.489 99.6178 181.674 107.968 177.921L115.073 192.337Z" fill="#F56843"/>
<path fill-rule="evenodd" clip-rule="evenodd" d="M116.849 136.826C110.847 123.492 107.24 114.634 106.027 110.251C102.098 96.0457 99.3561 83.6545 84.6795 83.6545C70.0028 83.6545 58.105 95.5526 58.105 110.23C58.105 114.41 61.712 127.815 68.9262 150.444C79.5658 150.402 88.1737 149.872 94.7498 148.855C101.326 147.838 108.692 143.828 116.849 136.826Z" fill="#FFD1D1" stroke="#F56843" stroke-width="0.842617" stroke-linecap="round" stroke-linejoin="round"/>
<path fill-rule="evenodd" clip-rule="evenodd" d="M116.8 136.785C110.798 123.451 107.191 114.593 105.979 110.211C102.05 96.0049 99.3078 83.6138 84.6311 83.6138C69.9544 83.6138 58.0566 95.5118 58.0566 110.189C58.0566 114.369 61.6637 127.774 68.8778 150.404C79.5175 150.361 88.1254 149.831 94.7015 148.814C101.278 147.797 108.644 143.788 116.8 136.785Z" fill="#FFD1D1"/>
<path fill-rule="evenodd" clip-rule="evenodd" d="M116.8 136.785C110.798 123.451 107.191 114.593 105.979 110.211C102.05 96.0049 99.3078 83.6138 84.6311 83.6138C69.9544 83.6138 58.0566 95.5118 58.0566 110.189C58.0566 114.369 61.6637 127.774 68.8778 150.404C79.5175 150.361 88.1254 149.831 94.7015 148.814C101.278 147.797 108.644 143.788 116.8 136.785Z" stroke="#F56843" stroke-width="0.842617" stroke-linecap="round" stroke-linejoin="round"/>
<path d="M117.035 136.68C111.039 123.358 107.435 114.508 106.228 110.142C106.07 109.571 105.369 107.02 105.181 106.339C102.869 97.9962 101.269 93.7362 98.6934 90.1568C95.441 85.6367 90.9919 83.3564 84.6314 83.3564C69.8125 83.3564 57.7993 95.3698 57.7993 110.189C57.7993 114.41 61.4067 127.816 68.6327 150.482C68.6669 150.589 68.7667 150.662 68.8792 150.662C79.5306 150.619 88.1506 150.088 94.7411 149.069C101.372 148.044 108.779 144.012 116.968 136.981C117.055 136.907 117.082 136.784 117.035 136.68ZM94.6624 148.56C88.1397 149.569 79.607 150.097 69.0662 150.145C61.9022 127.662 58.3146 114.319 58.3146 110.189C58.3146 95.6544 70.0971 83.8717 84.6314 83.8717C90.8261 83.8717 95.1195 86.0722 98.2751 90.4578C100.803 93.9712 102.388 98.192 104.684 106.477C104.872 107.156 105.573 109.707 105.731 110.28C106.943 114.66 110.526 123.467 116.486 136.716C108.422 143.612 101.145 147.557 94.6624 148.56Z" fill="#F56843"/>
<path d="M72.2009 122.419C72.2009 122.419 86.5498 128.053 108.352 120.391C108.727 120.259 109.138 120.024 109.586 119.685C108.459 117.429 107.772 115.883 107.525 115.047C106.52 111.642 106.427 109.479 105.292 107.318C104.558 105.921 104.301 103.537 103.574 101.306C103.182 100.102 102.438 98.2124 101.341 95.6375C100.252 93.4753 99.5076 92.0439 99.1083 91.3434C98.497 90.2708 98.4964 89.2239 97.6994 89.3399C93.3903 89.967 88.7435 92.7618 83.759 97.7244C72.1759 109.257 72.2009 122.419 72.2009 122.419Z" fill="#F56843"/>
<path fill-rule="evenodd" clip-rule="evenodd" d="M81.4165 100.275C82.6189 98.901 83.2842 98.0405 84.3365 97.0116C85.3888 95.9827 86.7412 94.7787 89.1459 93.061C90.4055 96.3818 91.6651 99.9889 93.2683 104.913C95.673 112.299 91.8654 113.463 87.2565 108.52C84.1839 105.224 82.3518 102.591 81.4165 100.275ZM95.0408 99.8483C95.8975 99.9082 96.3643 103.626 96.6261 104.264C96.772 104.619 96.6019 105.026 96.2462 105.172C95.9213 105.305 95.5479 105.176 95.3756 104.87C94.3718 103.088 93.8736 102.018 93.8809 101.661C93.8995 100.758 94.1841 99.7884 95.0408 99.8483Z" fill="white"/>
<path d="M90.2253 187.017C101.799 187.017 111.181 177.635 111.181 166.061C111.181 154.488 101.799 145.106 90.2253 145.106C78.652 145.106 69.27 154.488 69.27 166.061C69.27 177.635 78.652 187.017 90.2253 187.017Z" fill="#F56843"/>
<path d="M72.4417 120.659C70.6302 112.62 73.2909 104.977 80.4469 97.7078C87.6045 90.4366 92.6614 86.9138 95.5306 87.1345C95.6725 87.1454 95.4909 87.1912 95.5018 87.0493C95.5127 86.9075 95.4719 86.8885 95.33 86.8776C95.2479 86.8713 95.4045 86.6108 95.3195 86.6099C92.2101 86.5764 87.1569 90.1567 80.0797 97.3463C72.8075 104.734 70.0863 112.55 71.939 120.772C71.9703 120.911 72.1082 120.998 72.247 120.967C72.3858 120.935 72.473 120.797 72.4417 120.659Z" fill="#F56843"/>
<path fill-rule="evenodd" clip-rule="evenodd" d="M76.6558 182.379L84.3852 162.613L103.771 156.994C104.5 156.783 105.262 157.203 105.473 157.932C105.6 158.37 105.501 158.844 105.209 159.195L94.1758 172.416L93.2683 187.016L76.6558 182.379Z" fill="white"/>
<path fill-rule="evenodd" clip-rule="evenodd" d="M84.3422 162.626C81.7052 165.506 80.0286 167.4 79.3124 168.307C75.5518 173.067 75.6903 174.866 77.4716 176.024C80.9069 178.257 84.4653 182.735 86.87 178.613C88.4732 175.864 87.6305 170.535 84.3422 162.626Z" fill="#FFD1D1"/>
<path d="M84.1948 162.439C84.322 162.301 84.5505 162.341 84.6228 162.515C87.9407 170.495 88.7933 175.887 87.1353 178.73C86.1896 180.351 84.9855 180.839 83.5097 180.369C82.4438 180.029 81.6366 179.478 79.4931 177.793C78.9799 177.389 78.6795 177.157 78.3566 176.917C78.0006 176.652 77.6794 176.426 77.3739 176.227C75.2145 174.824 75.6086 172.621 79.1529 168.134C79.8744 167.221 81.5534 165.325 84.1948 162.439ZM86.6902 178.47C88.2136 175.859 87.4318 170.718 84.3014 163.086C81.8261 165.794 80.2432 167.585 79.5572 168.454C76.1754 172.734 75.839 174.615 77.6547 175.795C77.9703 176 78.3 176.232 78.6643 176.503C78.9917 176.747 79.2949 176.982 79.8115 177.388C81.8968 179.027 82.6847 179.565 83.666 179.878C84.9082 180.273 85.8642 179.886 86.6902 178.47ZM94.774 171.754C94.8552 171.637 95.0157 171.608 95.1326 171.69C95.2495 171.771 95.2784 171.931 95.1973 172.048C94.1992 173.485 93.2809 174.22 92.4092 174.22C92.2669 174.22 92.1515 174.105 92.1515 173.962C92.1515 173.82 92.2669 173.705 92.4092 173.705C93.0643 173.705 93.8636 173.065 94.774 171.754Z" fill="#F56843"/>
<path d="M71.2825 125.525C72.7055 125.525 73.859 124.371 73.859 122.948C73.859 121.525 72.7055 120.372 71.2825 120.372C69.8596 120.372 68.7061 121.525 68.7061 122.948C68.7061 124.371 69.8596 125.525 71.2825 125.525Z" fill="white"/>
<path d="M71.1593 125.782C72.7246 125.782 73.9934 124.514 73.9934 122.948C73.9934 121.383 72.7246 120.114 71.1593 120.114C69.5941 120.114 68.3252 121.383 68.3252 122.948C68.3252 124.514 69.5941 125.782 71.1593 125.782ZM71.1593 125.267C69.8787 125.267 68.8405 124.229 68.8405 122.948C68.8405 121.668 69.8787 120.63 71.1593 120.63C72.44 120.63 73.4781 121.668 73.4781 122.948C73.4781 124.229 72.44 125.267 71.1593 125.267Z" fill="#F56843"/>
<path d="M71.1591 124.408C72.0532 124.408 72.7909 123.763 72.7909 122.948C72.7909 122.134 72.0532 121.488 71.1591 121.488C70.265 121.488 69.5273 122.134 69.5273 122.948C69.5273 123.763 70.265 124.408 71.1591 124.408ZM71.1591 123.893C70.5354 123.893 70.0426 123.462 70.0426 122.948C70.0426 122.435 70.5354 122.004 71.1591 122.004C71.7828 122.004 72.2756 122.435 72.2756 122.948C72.2756 123.462 71.7828 123.893 71.1591 123.893Z" fill="#F56843"/>
<path fill-rule="evenodd" clip-rule="evenodd" d="M93.2685 185.814L92.2866 195.433L77.6865 204.021L66.1297 210.033L60.4614 202.475C65.2008 202.201 67.8917 201.456 68.5344 200.242C70.4365 196.649 73.1275 190.752 76.6073 182.551L93.2685 185.814Z" fill="white"/>
<path d="M93.3178 185.39C93.4484 185.415 93.5381 185.536 93.5246 185.669L92.5426 195.288C92.5343 195.369 92.4876 195.442 92.4169 195.483L77.8052 204.078L66.2483 210.09C66.1364 210.148 65.9989 210.117 65.9233 210.016L60.255 202.458C60.1317 202.294 60.2411 202.058 60.4463 202.047C65.0898 201.777 67.725 201.049 68.3064 199.95C70.2042 196.365 72.8927 190.473 76.3699 182.278C76.4175 182.166 76.537 182.103 76.6566 182.126L93.3178 185.39ZM76.7626 182.672C73.3196 190.779 70.6532 196.618 68.7618 200.191C68.0815 201.477 65.4925 202.229 60.9539 202.531L66.2044 209.532L77.5556 203.628L92.0432 195.105L92.9881 185.85L76.7626 182.672ZM92.1557 195.039L92.03 195.235L92.0432 195.105L92.1557 195.039Z" fill="#F56843"/>
<path fill-rule="evenodd" clip-rule="evenodd" d="M30.5742 115.562C28.8667 115.562 27.4824 114.178 27.4824 112.471C27.4824 110.763 28.8667 109.379 30.5742 109.379C32.2817 109.379 33.666 110.763 33.666 112.471C33.666 114.178 32.2817 115.562 30.5742 115.562ZM60.8048 123.292L61.615 126.384C61.4206 126.449 61.2282 126.521 61.038 126.598C55.6066 128.796 52.9857 134.981 55.1841 140.413L56.8056 144.419L53.7138 146.136L51.8848 140.182C49.9119 133.759 53.0016 126.868 59.1097 124.069L60.8048 123.292Z" fill="white"/>
<path d="M37.6997 126.937C37.7076 126.884 37.6988 126.83 37.6746 126.782L31.8346 115.274C31.7702 115.147 31.6152 115.096 31.4883 115.161C31.3614 115.225 31.3107 115.38 31.3751 115.507L37.178 126.942L36.503 131.499C36.4857 131.615 36.5497 131.729 36.6583 131.774L41.3691 133.746L49.0698 148.056C49.1372 148.181 49.2934 148.228 49.4187 148.161C49.544 148.093 49.591 147.937 49.5235 147.812L41.7797 133.421C41.7517 133.369 41.7067 133.328 41.6522 133.305L37.042 131.376L37.6997 126.937Z" fill="#F56843"/>
<path d="M30.451 115.82C28.6011 115.82 27.1016 114.321 27.1016 112.471C27.1016 110.621 28.6011 109.121 30.451 109.121C32.3008 109.121 33.8004 110.621 33.8004 112.471C33.8004 114.321 32.3008 115.82 30.451 115.82ZM30.451 115.305C32.0162 115.305 33.2851 114.036 33.2851 112.471C33.2851 110.906 32.0162 109.637 30.451 109.637C28.8857 109.637 27.6169 110.906 27.6169 112.471C27.6169 114.036 28.8857 115.305 30.451 115.305ZM60.5742 123.058C60.7198 122.991 60.8903 123.072 60.9308 123.227L61.741 126.318C61.7753 126.449 61.7026 126.584 61.5745 126.628C61.3848 126.692 61.1971 126.762 61.0115 126.837C55.7119 128.982 53.1547 135.017 55.2998 140.316L56.9212 144.322C56.97 144.443 56.9212 144.581 56.8075 144.644L53.7157 146.362C53.5725 146.441 53.3924 146.369 53.3443 146.212L51.5153 140.258C49.5044 133.711 52.6536 126.688 58.8791 123.835L60.5742 123.058ZM59.0938 124.303C53.1032 127.049 50.0729 133.807 52.0079 140.107L53.7435 145.757L56.3581 144.304L54.8221 140.51C52.5703 134.946 55.2548 128.611 60.8181 126.359C60.9387 126.31 61.0601 126.264 61.1824 126.219L60.5101 123.654L59.0938 124.303Z" fill="#F56843"/>
<path d="M36.9918 216.674C41.4912 222.807 44.3573 232.608 45.6026 246.08L45.0895 246.127C43.8339 232.544 40.9265 222.739 36.3804 216.715C32.6642 211.791 28.674 207.736 24.5657 204.466C21.5503 202.066 18.7288 200.288 16.2573 199.047L16.4884 198.587C18.9909 199.843 21.8424 201.64 24.8866 204.063C28.9869 207.326 32.9687 211.364 36.6797 216.257L53.9833 206.886C54.1085 206.819 54.2648 206.865 54.3326 206.99C54.4003 207.115 54.3538 207.272 54.2287 207.339L36.9918 216.674ZM61.572 211.802C61.5039 211.677 61.5498 211.521 61.6747 211.453C61.7996 211.385 61.9561 211.431 62.0243 211.555L77.3487 239.625C77.4168 239.75 77.3709 239.906 77.246 239.974C77.1211 240.043 76.9646 239.997 76.8964 239.872L61.572 211.802ZM55.9494 199.957C56.0121 200.085 55.9594 200.239 55.8317 200.302C55.7039 200.365 55.5496 200.312 55.4868 200.184L40.3053 169.266C40.2426 169.139 40.2953 168.984 40.423 168.922C40.5508 168.859 40.7052 168.912 40.7679 169.039L55.9494 199.957Z" fill="#F56843"/>
<path d="M69.0493 150.602L76.6556 166.061" stroke="#F56843" stroke-width="0.842617" stroke-linecap="round" stroke-linejoin="round"/>
<path d="M92.3721 195.347L105.979 222.109" stroke="#F56843" stroke-width="0.842617" stroke-linecap="round" stroke-linejoin="round"/>
<path d="M307.218 72.8884C307.354 72.8498 307.497 72.9295 307.535 73.0665C307.574 73.2035 307.494 73.3458 307.357 73.3843L285.494 79.543C280.153 81.0476 277.042 86.5977 278.547 91.9393C278.898 93.1843 279.485 94.3499 280.278 95.3721L283.484 99.5066C286.592 103.515 285.862 109.284 281.854 112.392C280.054 113.787 277.8 114.464 275.529 114.292L264.504 113.452C258.908 113.026 253.443 115.294 249.793 119.558L244.445 125.804C244.353 125.912 244.19 125.925 244.082 125.832C243.974 125.74 243.961 125.577 244.054 125.469L249.401 119.223C253.158 114.834 258.783 112.499 264.543 112.938L275.568 113.778C277.711 113.941 279.839 113.302 281.538 111.985C285.321 109.051 286.01 103.606 283.077 99.8224L279.871 95.6878C279.037 94.6132 278.419 93.3879 278.051 92.079C276.469 86.4634 279.739 80.6288 285.354 79.047L307.218 72.8884ZM269.327 147.511V143.045C269.327 142.855 269.481 142.701 269.671 142.701C269.861 142.701 270.014 142.855 270.014 143.045V147.511H274.48C274.67 147.511 274.824 147.664 274.824 147.854C274.824 148.044 274.67 148.198 274.48 148.198H270.014V152.663C270.014 152.853 269.861 153.007 269.671 153.007C269.481 153.007 269.327 152.853 269.327 152.663V148.198H264.861C264.672 148.198 264.518 148.044 264.518 147.854C264.518 147.664 264.672 147.511 264.861 147.511H269.327ZM108.555 37.581V33.1151C108.555 32.9254 108.709 32.7716 108.899 32.7716C109.089 32.7716 109.242 32.9254 109.242 33.1151V37.581H113.708C113.898 37.581 114.052 37.7348 114.052 37.9246C114.052 38.1143 113.898 38.2681 113.708 38.2681H109.242V42.734C109.242 42.9237 109.089 43.0775 108.899 43.0775C108.709 43.0775 108.555 42.9237 108.555 42.734V38.2681H104.09C103.9 38.2681 103.746 38.1143 103.746 37.9246C103.746 37.7348 103.9 37.581 104.09 37.581H108.555ZM254.212 57.5057V53.0399C254.212 52.8501 254.366 52.6963 254.556 52.6963C254.745 52.6963 254.899 52.8501 254.899 53.0399V57.5057H259.365C259.555 57.5057 259.709 57.6596 259.709 57.8493C259.709 58.039 259.555 58.1928 259.365 58.1928H254.899V62.6587C254.899 62.8484 254.745 63.0022 254.556 63.0022C254.366 63.0022 254.212 62.8484 254.212 62.6587V58.1928H249.746C249.556 58.1928 249.403 58.039 249.403 57.8493C249.403 57.6596 249.556 57.5057 249.746 57.5057H254.212ZM3.77883 147.511V144.075C3.77883 143.886 3.93263 143.732 4.12236 143.732C4.31208 143.732 4.46589 143.886 4.46589 144.075V147.511H7.90119C8.09091 147.511 8.24471 147.664 8.24471 147.854C8.24471 148.044 8.09091 148.198 7.90119 148.198H4.46589V151.633C4.46589 151.823 4.31208 151.976 4.12236 151.976C3.93263 151.976 3.77883 151.823 3.77883 151.633V148.198H0.34353C0.153804 148.198 0 148.044 0 147.854C0 147.664 0.153804 147.511 0.34353 147.511H3.77883ZM214.534 97.6987V94.4352C214.534 94.2455 214.688 94.0917 214.878 94.0917C215.068 94.0917 215.221 94.2455 215.221 94.4352V97.6987H218.485C218.675 97.6987 218.828 97.8525 218.828 98.0423C218.828 98.232 218.675 98.3858 218.485 98.3858H215.221V101.649C215.221 101.839 215.068 101.993 214.878 101.993C214.688 101.993 214.534 101.839 214.534 101.649V98.3858H211.271C211.081 98.3858 210.927 98.232 210.927 98.0423C210.927 97.8525 211.081 97.6987 211.271 97.6987H214.534ZM127.278 87.5646V84.3011C127.278 84.1113 127.432 83.9575 127.621 83.9575C127.811 83.9575 127.965 84.1113 127.965 84.3011V87.5646H131.228C131.418 87.5646 131.572 87.7184 131.572 87.9081C131.572 88.0979 131.418 88.2517 131.228 88.2517H127.965V91.5152C127.965 91.7049 127.811 91.8587 127.621 91.8587C127.432 91.8587 127.278 91.7049 127.278 91.5152V88.2517H124.014C123.825 88.2517 123.671 88.0979 123.671 87.9081C123.671 87.7184 123.825 87.5646 124.014 87.5646H127.278Z" fill="#F56843"/>
<path fill-rule="evenodd" clip-rule="evenodd" d="M93.4976 162.448C91.8289 161.252 90.4637 160.953 89.4018 161.551C87.809 162.448 85.7611 164.242 86.8988 166.485C88.0366 168.728 88.9467 170.522 90.0844 170.522C91.2221 170.522 93.27 170.746 94.4077 168.279C95.1662 166.634 94.8628 164.691 93.4976 162.448Z" fill="#FFD1D1"/>
<path fill-rule="evenodd" clip-rule="evenodd" d="M93.4046 163.48C93.2869 164.696 92.8817 165.48 92.1893 165.831C91.5837 166.138 90.6365 166.317 89.3474 166.368C88.7786 166.39 88.2995 165.947 88.2772 165.378C88.2695 165.184 88.3173 164.991 88.4149 164.822C89.1236 163.597 89.7519 162.846 90.2998 162.568C90.8749 162.276 91.625 162.208 92.5501 162.364C93.0836 162.454 93.4568 162.941 93.4046 163.48Z" fill="white"/>
<path d="M92.9772 163.886C92.8043 164.158 92.4611 164.344 92.066 164.344C91.4969 164.344 91.0355 163.959 91.0355 163.485C91.0355 163.022 91.4751 162.644 92.0255 162.627C91.3169 162.551 90.7402 162.629 90.2932 162.856C89.8017 163.105 89.2003 163.824 88.5147 165.009C88.4415 165.136 88.4057 165.28 88.4114 165.427C88.4281 165.853 88.7875 166.185 89.2141 166.169C90.4694 166.119 91.3836 165.947 91.9495 165.66C92.482 165.39 92.8285 164.806 92.9772 163.886ZM92.4929 162.703C92.5787 162.73 92.6573 162.772 92.7263 162.825C92.6559 162.776 92.5774 162.735 92.4929 162.703ZM93.5379 163.563C93.4124 164.858 92.9663 165.722 92.1826 166.119C91.5374 166.446 90.5571 166.632 89.2343 166.684C88.5233 166.711 87.9244 166.158 87.8965 165.447C87.8869 165.203 87.9467 164.962 88.0687 164.751C88.8006 163.486 89.4557 162.703 90.0601 162.396C90.6899 162.077 91.4944 162.004 92.4697 162.168C93.1366 162.281 93.603 162.89 93.5379 163.563Z" fill="#F56843"/>
<path fill-rule="evenodd" clip-rule="evenodd" d="M104.261 156.875C103.457 156.674 102.609 156.812 101.717 157.29L101.717 157.29C101.55 157.379 101.487 157.587 101.576 157.755C101.595 157.79 101.62 157.822 101.65 157.848C101.991 158.154 102.403 158.327 102.887 158.368C103.528 158.423 104.272 158.423 105.12 158.368C105.463 157.602 105.177 157.104 104.261 156.875Z" fill="#FFD1D1"/>
<path d="M104.496 156.589C103.626 156.371 102.714 156.52 101.768 157.026C101.475 157.183 101.365 157.547 101.521 157.84C101.554 157.902 101.598 157.957 101.65 158.004C102.033 158.347 102.498 158.543 103.037 158.589C103.692 158.645 104.449 158.645 105.309 158.589C105.404 158.583 105.488 158.524 105.527 158.437C105.94 157.516 105.56 156.855 104.496 156.589ZM103.081 158.075C102.652 158.038 102.292 157.887 101.994 157.62C101.987 157.613 101.98 157.606 101.976 157.597C101.953 157.555 101.969 157.503 102.011 157.48C102.849 157.032 103.633 156.904 104.371 157.089C105.077 157.265 105.297 157.562 105.114 158.085C104.345 158.129 103.668 158.125 103.081 158.075Z" fill="#F56843"/>
<path fill-rule="evenodd" clip-rule="evenodd" d="M317.765 57.5059L314.33 58.3647L323.09 66.9529L324.121 63.5176" fill="white"/>
<path d="M186.021 232.363C187.444 232.363 188.598 231.209 188.598 229.786C188.598 228.363 187.444 227.21 186.021 227.21C184.598 227.21 183.445 228.363 183.445 229.786C183.445 231.209 184.598 232.363 186.021 232.363Z" fill="white"/>
<path d="M185.899 232.62C187.464 232.62 188.733 231.351 188.733 229.786C188.733 228.221 187.464 226.952 185.899 226.952C184.333 226.952 183.064 228.221 183.064 229.786C183.064 231.351 184.333 232.62 185.899 232.62ZM185.899 232.105C184.618 232.105 183.58 231.067 183.58 229.786C183.58 228.505 184.618 227.467 185.899 227.467C187.179 227.467 188.217 228.505 188.217 229.786C188.217 231.067 187.179 232.105 185.899 232.105Z" fill="#F56843"/>
<path d="M224.841 191.482C226.264 191.482 227.417 190.329 227.417 188.906C227.417 187.483 226.264 186.329 224.841 186.329C223.418 186.329 222.264 187.483 222.264 188.906C222.264 190.329 223.418 191.482 224.841 191.482Z" fill="white"/>
<path d="M224.84 191.74C226.405 191.74 227.674 190.471 227.674 188.906C227.674 187.341 226.405 186.072 224.84 186.072C223.275 186.072 222.006 187.341 222.006 188.906C222.006 190.471 223.275 191.74 224.84 191.74ZM224.84 191.225C223.559 191.225 222.521 190.187 222.521 188.906C222.521 187.625 223.559 186.587 224.84 186.587C226.121 186.587 227.159 187.625 227.159 188.906C227.159 190.187 226.121 191.225 224.84 191.225Z" fill="#F56843"/>
<path d="M185.898 231.246C186.792 231.246 187.53 230.601 187.53 229.786C187.53 228.971 186.792 228.326 185.898 228.326C185.004 228.326 184.267 228.971 184.267 229.786C184.267 230.601 185.004 231.246 185.898 231.246ZM185.898 230.731C185.275 230.731 184.782 230.3 184.782 229.786C184.782 229.273 185.275 228.841 185.898 228.841C186.522 228.841 187.015 229.273 187.015 229.786C187.015 230.3 186.522 230.731 185.898 230.731Z" fill="#F56843"/>
<path d="M224.84 190.366C225.734 190.366 226.472 189.721 226.472 188.906C226.472 188.091 225.734 187.446 224.84 187.446C223.946 187.446 223.208 188.091 223.208 188.906C223.208 189.721 223.946 190.366 224.84 190.366ZM224.84 189.851C224.217 189.851 223.724 189.42 223.724 188.906C223.724 188.393 224.217 187.961 224.84 187.961C225.464 187.961 225.957 188.393 225.957 188.906C225.957 189.42 225.464 189.851 224.84 189.851Z" fill="#F56843"/>
<path d="M73.562 123.139C76.2603 125.602 82.1533 126.7 91.2622 126.469C100.353 126.239 106.808 124.856 110.636 122.304C110.755 122.225 110.787 122.065 110.708 121.947C110.629 121.828 110.469 121.796 110.35 121.875C106.621 124.361 100.251 125.726 91.2492 125.954C82.2656 126.182 76.4785 125.104 73.9094 122.758C73.8043 122.662 73.6414 122.669 73.5454 122.775C73.4495 122.88 73.4569 123.043 73.562 123.139Z" fill="#F56843"/>
<path fill-rule="evenodd" clip-rule="evenodd" d="M370.419 7.04095C361.887 9.97638 353.191 15.1836 344.33 22.6626C335.19 30.3771 325.331 40.9679 314.753 54.4349L326.641 65.9146C339.81 54.7269 350.05 44.5045 357.362 35.2473C364.453 26.2692 369.392 17.4358 372.179 8.74689C372.337 8.25367 372.202 7.71342 371.829 7.3536C371.455 6.99273 370.911 6.87194 370.419 7.04095Z" fill="#FFD1D1"/>
<path fill-rule="evenodd" clip-rule="evenodd" d="M356.928 13.534L366.031 21.9505C370.955 13.0187 372.902 8.09481 371.871 7.17873C370.841 6.26265 365.86 8.38108 356.928 13.534Z" fill="#FFAFAF"/>
<path fill-rule="evenodd" clip-rule="evenodd" d="M321.634 65.7145L316.219 72.2776L316.734 67.2964L312.44 68.327L314.158 64.5482H309.177L315.418 59.6208L313.821 58.0546L317.703 57.0841L317.827 57.584L314.839 58.3312L322.966 66.2985L323.874 63.2718L324.367 63.4199L323.214 67.2637L321.634 65.7145Z" fill="#F56843"/>
<path d="M344.158 22.3502C335.004 30.0771 325.133 40.6803 314.546 54.1602C314.464 54.2641 314.474 54.4129 314.569 54.5047L326.457 65.9844C326.552 66.0764 326.702 66.0812 326.802 65.9954C339.984 54.7975 350.235 44.5635 357.559 35.2914C364.668 26.2904 369.622 17.4301 372.419 8.71005C372.607 8.12337 372.446 7.48072 372.003 7.05272C371.559 6.62456 370.913 6.48125 370.33 6.68178C361.766 9.6283 353.042 14.8518 344.158 22.3502ZM315.094 54.2956C325.608 40.9284 335.407 30.411 344.491 22.7439C353.329 15.2843 361.998 10.0934 370.498 7.16904C370.898 7.03154 371.341 7.12981 371.645 7.42339C371.947 7.71502 372.057 8.15289 371.928 8.55264C369.151 17.2103 364.227 26.017 357.154 34.972C349.887 44.1728 339.718 54.3332 326.647 65.4515L315.094 54.2956Z" fill="#F56843"/>
<path fill-rule="evenodd" clip-rule="evenodd" d="M332.431 36.207L330.899 38.9352L314.929 54.3311L302.977 55.042L301.963 54.063L332.431 36.207ZM344.488 47.7516L327.166 78.5267L326.17 77.5302L326.672 65.5675L341.787 49.3315L344.488 47.7516Z" fill="white"/>
<path d="M332.133 36.1072C332.359 35.9743 332.616 36.2264 332.488 36.4556L330.955 39.1838L330.909 39.2431L314.939 54.6391C314.895 54.6817 314.837 54.7071 314.776 54.7108L302.824 55.4216C302.752 55.4259 302.681 55.3999 302.63 55.3498L301.616 54.3708C301.493 54.2523 301.517 54.0494 301.665 53.9631L332.133 36.1072ZM302.218 54.236L302.906 54.9005L314.65 54.202L330.524 38.8984L331.572 37.0328L302.218 54.236ZM330.552 38.8721L330.506 38.9314L330.524 38.8984L330.552 38.8721ZM344.189 47.6516C344.416 47.5189 344.673 47.7713 344.544 48.0004L327.223 78.7755C327.139 78.9242 326.936 78.952 326.816 78.8313L325.819 77.8348C325.768 77.7838 325.741 77.7138 325.744 77.6418L326.246 65.6791C326.249 65.6178 326.273 65.5593 326.315 65.5144L341.43 49.2783L341.488 49.2315L344.189 47.6516ZM341.781 49.6572L326.757 65.7958L326.264 77.5504L326.94 78.2268L343.628 48.5768L341.781 49.6572Z" fill="#F56843"/>
<path d="M351.775 33.4587C354.62 33.4587 356.927 31.1517 356.927 28.3058C356.927 25.4599 354.62 23.1528 351.775 23.1528C348.929 23.1528 346.622 25.4599 346.622 28.3058C346.622 31.1517 348.929 33.4587 351.775 33.4587Z" fill="white"/>
<path d="M351.844 33.5961C354.832 33.5961 357.254 31.1737 357.254 28.1855C357.254 25.1973 354.832 22.7749 351.844 22.7749C348.855 22.7749 346.433 25.1973 346.433 28.1855C346.433 31.1737 348.855 33.5961 351.844 33.5961ZM351.844 33.0808C349.14 33.0808 346.948 30.8891 346.948 28.1855C346.948 25.4819 349.14 23.2902 351.844 23.2902C354.547 23.2902 356.739 25.4819 356.739 28.1855C356.739 30.8891 354.547 33.0808 351.844 33.0808Z" fill="#F56843"/>
<path d="M351.775 30.9681C350.304 30.9681 349.112 29.7762 349.112 28.3058C349.112 26.8354 350.304 25.6434 351.775 25.6434C353.245 25.6434 354.437 26.8354 354.437 28.3058C354.437 29.7762 353.245 30.9681 351.775 30.9681ZM351.775 30.4528C352.96 30.4528 353.922 29.4916 353.922 28.3058C353.922 27.12 352.96 26.1587 351.775 26.1587C350.589 26.1587 349.628 27.12 349.628 28.3058C349.628 29.4916 350.589 30.4528 351.775 30.4528ZM356.752 13.5504L357.104 13.1741L366.286 21.7623L365.934 22.1387L356.752 13.5504Z" fill="#F56843"/>
<path d="M176.781 122.73C169.678 127.202 164.786 131.461 162.103 135.517C159.423 139.568 157.009 146.408 154.853 156.042L155.355 156.155C157.5 146.576 159.895 139.789 162.533 135.801C165.168 131.817 170.009 127.602 177.055 123.166L176.781 122.73Z" fill="#F56843"/>
<path fill-rule="evenodd" clip-rule="evenodd" d="M77.2569 181.021C80.0262 182.006 82.5882 182.755 84.9429 183.267C87.2471 183.768 89.9543 184.2 93.0647 184.565C93.7245 184.642 94.1966 185.24 94.1193 185.899C94.1134 185.95 94.1041 186.001 94.0918 186.05L94.0581 186.185C93.8878 186.868 93.2285 187.312 92.5314 187.213C89.6395 186.802 86.9383 186.345 84.4276 185.843C81.8809 185.334 79.3102 184.454 76.7156 183.205C76.1502 182.933 75.8539 182.301 76.0061 181.692C76.1345 181.178 76.6548 180.866 77.1682 180.995C77.1982 181.002 77.2278 181.011 77.2569 181.021Z" fill="white"/>
<path d="M87.4362 184.233C86.5562 184.078 85.7224 183.915 84.9348 183.744C83.9753 183.535 82.9755 183.266 81.9356 182.936L81.5644 184.544C82.6041 184.855 83.626 185.111 84.6301 185.311C85.4274 185.471 86.2441 185.626 87.0802 185.776L87.4362 184.233ZM87.9447 184.321L87.5882 185.866C89.2212 186.154 90.9269 186.424 92.7053 186.677C93.141 186.739 93.553 186.461 93.6595 186.034L93.6931 185.899C93.7002 185.871 93.7055 185.842 93.7089 185.813C93.7531 185.436 93.4832 185.094 93.1062 185.05C91.2427 184.832 89.5223 184.589 87.9447 184.321ZM81.4436 182.776C80.104 182.332 78.6993 181.79 77.2291 181.149C77.1968 181.135 77.1634 181.124 77.1292 181.115C76.7893 181.031 76.445 181.238 76.3602 181.578L76.3061 181.795C76.2046 182.202 76.4124 182.623 76.7975 182.79C78.2535 183.422 79.6778 183.956 81.0704 184.393L81.4436 182.776ZM77.4349 180.677C80.2121 181.887 82.7486 182.741 85.0443 183.24C87.3484 183.741 90.0557 184.174 93.1661 184.538C93.8258 184.616 94.298 185.213 94.2207 185.873C94.2147 185.924 94.2055 185.974 94.1931 186.024L94.1595 186.159C93.9891 186.842 93.3299 187.286 92.6327 187.187C89.7409 186.776 87.0396 186.319 84.529 185.817C81.9916 185.309 79.3461 184.458 76.5924 183.263C75.9762 182.995 75.6436 182.322 75.8061 181.67L75.8602 181.453C76.0138 180.837 76.6378 180.462 77.2539 180.615C77.3158 180.631 77.3764 180.652 77.4349 180.677Z" fill="#F56843"/>
<path fill-rule="evenodd" clip-rule="evenodd" d="M46.7202 152.835L49.1249 151.805L51.5296 156.786L49.1249 158.332L46.7202 152.835ZM54.7932 154.725C54.1517 154.725 53.5067 154.619 53.0755 154.21C52.6141 153.771 52.3885 153.007 52.3885 152.32C52.3885 151.771 52.5935 151.007 52.9038 150.602C53.3432 150.029 54.0147 149.915 54.7932 149.915C55.4863 149.915 56.072 149.961 56.5108 150.431C56.9128 150.861 57.1979 151.685 57.1979 152.32C57.1979 153.113 56.9309 153.943 56.339 154.381C55.9395 154.677 55.3284 154.725 54.7932 154.725Z" fill="#FFD1D1"/>
<path d="M46.5518 152.701L49.4215 151.471L52.0325 156.879L49.1817 158.712L46.5518 152.701ZM49.4115 157.952L51.3701 156.692L49.1716 152.139L47.232 152.97L49.4115 157.952ZM54.9648 154.982C54.1425 154.982 53.5126 154.817 53.0697 154.396C52.579 153.93 52.3024 153.126 52.3024 152.32C52.3024 151.689 52.5368 150.882 52.8709 150.446C53.3218 149.857 53.9598 149.658 54.9648 149.658C55.922 149.658 56.4276 149.781 56.8706 150.255C57.3111 150.725 57.6272 151.608 57.6272 152.32C57.6272 153.26 57.2905 154.125 56.664 154.588C56.2633 154.885 55.7256 154.982 54.9648 154.982ZM54.9648 154.467C55.622 154.467 56.0718 154.385 56.3574 154.174C56.8355 153.82 57.1119 153.11 57.1119 152.32C57.1119 151.733 56.8411 150.977 56.4943 150.607C56.1768 150.267 55.7905 150.173 54.9648 150.173C54.1041 150.173 53.6108 150.327 53.2799 150.759C53.0201 151.098 52.8177 151.795 52.8177 152.32C52.8177 152.996 53.0478 153.665 53.4246 154.023C53.7513 154.333 54.2619 154.467 54.9648 154.467Z" fill="#F56843"/>
<path d="M181.383 80.5222H151.496C150.927 80.5222 150.466 80.9836 150.466 81.5528C150.466 82.122 150.927 82.5834 151.496 82.5834H181.383C181.953 82.5834 182.414 82.122 182.414 81.5528C182.414 80.9836 181.953 80.5222 181.383 80.5222Z" fill="white"/>
<path d="M151.496 80.5222H181.383C181.953 80.5222 182.414 80.9836 182.414 81.5528C182.414 82.122 181.953 82.5834 181.383 82.5834H151.496C150.927 82.5834 150.466 82.122 150.466 81.5528C150.466 80.9836 150.927 80.5222 151.496 80.5222ZM151.496 81.0375C151.212 81.0375 150.981 81.2682 150.981 81.5528C150.981 81.8374 151.212 82.0681 151.496 82.0681H181.383C181.668 82.0681 181.899 81.8374 181.899 81.5528C181.899 81.2682 181.668 81.0375 181.383 81.0375H151.496Z" fill="#F56843"/>
<path d="M106.581 221.623L93.013 194.993C92.8192 194.613 92.3538 194.462 91.9734 194.655C91.5931 194.849 91.4418 195.315 91.6356 195.695L105.204 222.325C105.398 222.705 105.863 222.856 106.244 222.662C106.624 222.469 106.775 222.003 106.581 221.623Z" fill="white" stroke="#F56843" stroke-width="0.842617"/>
<path fill-rule="evenodd" clip-rule="evenodd" d="M98.2901 153.113C97.3114 153.942 92.7245 150.421 91.7435 150.006C91.2161 149.782 90.9695 149.174 91.1926 148.647C91.3972 148.163 91.9308 147.909 92.4351 148.054C95.4486 148.924 97.1473 149.555 97.5314 149.947C98.505 150.94 99.2688 152.283 98.2901 153.113Z" fill="white"/>
<path fill-rule="evenodd" clip-rule="evenodd" d="M121.379 176.531L131.639 170.032C131.799 169.93 132.012 169.978 132.113 170.138C132.116 170.142 132.118 170.146 132.12 170.15L136.046 176.943C136.138 177.101 136.089 177.304 135.935 177.403L125.858 183.905C125.698 184.008 125.486 183.962 125.383 183.802C125.381 183.8 125.379 183.797 125.378 183.794L121.269 176.999C121.172 176.839 121.221 176.631 121.379 176.531Z" fill="white"/>
<path d="M120.896 176.635L131.675 169.899C131.836 169.798 132.048 169.847 132.148 170.008L136.517 177C136.618 177.161 136.569 177.373 136.408 177.474L125.629 184.209C125.468 184.31 125.256 184.261 125.156 184.1L120.787 177.108C120.686 176.947 120.735 176.735 120.896 176.635ZM121.315 176.981L125.502 183.681L135.989 177.128L131.802 170.427L121.315 176.981Z" fill="#F56843"/>
<path d="M123.492 176.74L130.484 172.371C130.645 172.27 130.857 172.319 130.957 172.48L133.87 177.141C133.971 177.302 133.922 177.514 133.761 177.615L126.769 181.984C126.608 182.084 126.396 182.035 126.295 181.874L123.383 177.213C123.282 177.052 123.331 176.84 123.492 176.74ZM126.641 181.456L133.342 177.269L130.611 172.899L123.911 177.086L126.641 181.456Z" fill="#F56843"/>
</svg>
