<svg width="24" height="24" viewBox="0 0 24 24" fill="none" xmlns="http://www.w3.org/2000/svg">
<path d="M14.8752 2.89961L23.3002 11.2996C23.4002 11.3996 23.4712 11.5079 23.5132 11.6246C23.5552 11.7413 23.5758 11.8663 23.5752 11.9996C23.5752 12.1329 23.5542 12.2579 23.5122 12.3746C23.4702 12.4913 23.3995 12.5996 23.3002 12.6996L14.8752 21.1246C14.6418 21.3579 14.3502 21.4746 14.0002 21.4746C13.6502 21.4746 13.3502 21.3496 13.1002 21.0996C12.8502 20.8496 12.7252 20.5579 12.7252 20.2246C12.7252 19.8913 12.8502 19.5996 13.1002 19.3496L20.4502 11.9996L13.1002 4.64961C12.8668 4.41628 12.7502 4.12861 12.7502 3.78661C12.7502 3.44461 12.8752 3.14894 13.1252 2.89961C13.3752 2.64961 13.6668 2.52461 14.0002 2.52461C14.3335 2.52461 14.6252 2.64961 14.8752 2.89961Z" fill="#F14866"/>
</svg>
