<svg width="24" height="24" viewBox="0 0 24 24" fill="none" xmlns="http://www.w3.org/2000/svg">
<path d="M20 11C20 8.87827 19.1571 6.84344 17.6569 5.34315C16.1566 3.84285 14.1217 3 12 3C9.87827 3 7.84344 3.84285 6.34315 5.34315C4.84285 6.84344 4 8.87827 4 11" stroke="white" stroke-width="1.5" stroke-linecap="round" stroke-linejoin="round"/>
<path d="M20 17.9998V18.4998C20 19.0302 19.7893 19.5389 19.4142 19.914C19.0391 20.289 18.5304 20.4998 18 20.4998H14.5M2 15.4378V13.5618C2.00007 13.1158 2.1492 12.6826 2.4237 12.3311C2.69821 11.9796 3.08232 11.7299 3.515 11.6218L5.255 11.1858C5.34342 11.1637 5.43569 11.1621 5.52481 11.1811C5.61393 11.2 5.69757 11.2391 5.76937 11.2951C5.84118 11.3512 5.89926 11.4229 5.93922 11.5048C5.97918 11.5867 5.99997 11.6766 6 11.7678V17.2308C6.00016 17.3221 5.97947 17.4122 5.93952 17.4943C5.89957 17.5764 5.84141 17.6483 5.76946 17.7045C5.69752 17.7608 5.61369 17.7998 5.52436 17.8188C5.43503 17.8377 5.34257 17.836 5.254 17.8138L3.514 17.3788C3.08151 17.2704 2.69762 17.0207 2.42331 16.6692C2.149 16.3177 2.00001 15.8846 2 15.4388V15.4378ZM22 15.4378V13.5618C21.9999 13.1158 21.8508 12.6826 21.5763 12.3311C21.3018 11.9796 20.9177 11.7299 20.485 11.6218L18.745 11.1858C18.6566 11.1637 18.5643 11.1621 18.4752 11.1811C18.3861 11.2 18.3024 11.2391 18.2306 11.2951C18.1588 11.3512 18.1007 11.4229 18.0608 11.5048C18.0208 11.5867 18 11.6766 18 11.7678V17.2308C17.9999 17.322 18.0206 17.412 18.0604 17.494C18.1003 17.576 18.1584 17.6478 18.2302 17.7041C18.3021 17.7603 18.3857 17.7994 18.4749 17.8184C18.5641 17.8374 18.6565 17.8358 18.745 17.8138L20.485 17.3788C20.9177 17.2706 21.3018 17.0209 21.5763 16.6694C21.8508 16.3179 21.9999 15.8847 22 15.4388V15.4378Z" stroke="white" stroke-width="1.5"/>
<path d="M13.5 22H10.5C10.1022 22 9.72064 21.842 9.43934 21.5607C9.15804 21.2794 9 20.8978 9 20.5C9 20.1022 9.15804 19.7206 9.43934 19.4393C9.72064 19.158 10.1022 19 10.5 19H13.5C13.8978 19 14.2794 19.158 14.5607 19.4393C14.842 19.7206 15 20.1022 15 20.5C15 20.8978 14.842 21.2794 14.5607 21.5607C14.2794 21.842 13.8978 22 13.5 22Z" stroke="white" stroke-width="1.5"/>
</svg>
