<svg width="25" height="25" viewBox="0 0 25 25" fill="none" xmlns="http://www.w3.org/2000/svg">
<path d="M9.37516 22.9163C9.95046 22.9163 10.4168 22.45 10.4168 21.8747C10.4168 21.2994 9.95046 20.833 9.37516 20.833C8.79987 20.833 8.3335 21.2994 8.3335 21.8747C8.3335 22.45 8.79987 22.9163 9.37516 22.9163Z" stroke="black" stroke-width="2" stroke-linecap="round" stroke-linejoin="round"/>
<path d="M20.8332 22.9163C21.4085 22.9163 21.8748 22.45 21.8748 21.8747C21.8748 21.2994 21.4085 20.833 20.8332 20.833C20.2579 20.833 19.7915 21.2994 19.7915 21.8747C19.7915 22.45 20.2579 22.9163 20.8332 22.9163Z" stroke="black" stroke-width="2" stroke-linecap="round" stroke-linejoin="round"/>
<path d="M1.0415 1.04199H5.20817L7.99984 14.9899C8.09509 15.4695 8.35599 15.9003 8.73686 16.2069C9.11774 16.5135 9.59431 16.6764 10.0832 16.667H20.2082C20.697 16.6764 21.1736 16.5135 21.5545 16.2069C21.9353 15.9003 22.1962 15.4695 22.2915 14.9899L23.9582 6.25033H6.24984" stroke="black" stroke-width="2" stroke-linecap="round" stroke-linejoin="round"/>
</svg>
