<svg width="30" height="30" viewBox="0 0 30 30" fill="none" xmlns="http://www.w3.org/2000/svg">
<g clip-path="url(#clip0_759_433)">
<path d="M26.05 5.76252C25.4116 5.12378 24.6535 4.61708 23.8192 4.27138C22.9849 3.92568 22.0906 3.74774 21.1875 3.74774C20.2844 3.74774 19.3901 3.92568 18.5558 4.27138C17.7215 4.61708 16.9634 5.12378 16.325 5.76252L15 7.08752L13.675 5.76252C12.3854 4.47291 10.6363 3.74841 8.8125 3.74841C6.98871 3.74841 5.23961 4.47291 3.95 5.76252C2.66038 7.05214 1.93589 8.80123 1.93589 10.625C1.93589 12.4488 2.66038 14.1979 3.95 15.4875L5.275 16.8125L15 26.5375L24.725 16.8125L26.05 15.4875C26.6887 14.8491 27.1954 14.091 27.5411 13.2567C27.8868 12.4224 28.0648 11.5281 28.0648 10.625C28.0648 9.72191 27.8868 8.82765 27.5411 7.99333C27.1954 7.15901 26.6887 6.40097 26.05 5.76252Z" stroke="#F14866" stroke-width="2" stroke-linecap="round" stroke-linejoin="round"/>
<path d="M15 26.6875L13.1875 25.0375C6.75 19.2 2.5 15.3375 2.5 10.625C2.5 6.7625 5.525 3.75 9.375 3.75C11.55 3.75 13.6375 4.7625 15 6.35C16.3625 4.7625 18.45 3.75 20.625 3.75C24.475 3.75 27.5 6.7625 27.5 10.625C27.5 15.3375 23.25 19.2 16.8125 25.0375L15 26.6875Z" fill="#F14866"/>
</g>
<defs>
<clipPath id="clip0_759_433">
<rect width="30" height="30" fill="white"/>
</clipPath>
</defs>
</svg>
