<svg width="70" height="70" viewBox="0 0 70 70" fill="none" xmlns="http://www.w3.org/2000/svg">
<g clip-path="url(#clip0_818_1092)">
<path fill-rule="evenodd" clip-rule="evenodd" d="M35 70C54.33 70 70 54.33 70 35C70 15.67 54.33 0 35 0C15.67 0 0 15.67 0 35C0 54.33 15.67 70 35 70Z" fill="#CCF8FE"/>
<path d="M33.3853 22.958H22.9582C22.168 22.958 21.4103 23.2719 20.8516 23.8306C20.2929 24.3893 19.979 25.1471 19.979 25.9372V46.7913C19.979 47.5815 20.2929 48.3392 20.8516 48.8979C21.4103 49.4566 22.168 49.7705 22.9582 49.7705H43.8123C44.6025 49.7705 45.3602 49.4566 45.9189 48.8979C46.4776 48.3392 46.7915 47.5815 46.7915 46.7913V36.3643" stroke="#02A0FC" stroke-width="3" stroke-linecap="round" stroke-linejoin="round"/>
<path d="M44.5571 20.7243C45.1497 20.1317 45.9534 19.7988 46.7915 19.7988C47.6296 19.7988 48.4333 20.1317 49.0259 20.7243C49.6185 21.3169 49.9514 22.1207 49.9514 22.9587C49.9514 23.7968 49.6185 24.6005 49.0259 25.1931L34.8748 39.3441L28.9165 40.8337L30.4061 34.8754L44.5571 20.7243Z" stroke="#02A0FC" stroke-width="3" stroke-linecap="round" stroke-linejoin="round"/>
</g>
<defs>
<clipPath id="clip0_818_1092">
<rect width="70" height="70" rx="10" fill="white"/>
</clipPath>
</defs>
</svg>
