<svg width="26" height="32" viewBox="0 0 26 32" fill="none" xmlns="http://www.w3.org/2000/svg">
<path d="M13 31C13 31 25 25 25 16V5.5L13 1L1 5.5V16C1 25 13 31 13 31Z" stroke="#989898" stroke-width="1.5" stroke-linecap="round" stroke-linejoin="round"/>
<path d="M17.425 13.8252H7.975C7.22942 13.8252 6.625 14.4296 6.625 15.1752V19.9002C6.625 20.6458 7.22942 21.2502 7.975 21.2502H17.425C18.1706 21.2502 18.775 20.6458 18.775 19.9002V15.1752C18.775 14.4296 18.1706 13.8252 17.425 13.8252Z" stroke="#989898" stroke-width="1.5" stroke-linecap="round" stroke-linejoin="round"/>
<path d="M9.3252 13.825V11.125C9.3252 10.2299 9.68077 9.37145 10.3137 8.73851C10.9466 8.10558 11.8051 7.75 12.7002 7.75C13.5953 7.75 14.4537 8.10558 15.0867 8.73851C15.7196 9.37145 16.0752 10.2299 16.0752 11.125V13.825" stroke="#989898" stroke-width="1.5" stroke-linecap="round" stroke-linejoin="round"/>
</svg>
