<svg width="60" height="60" viewBox="0 0 60 60" fill="none" xmlns="http://www.w3.org/2000/svg">
<path d="M16.9686 47.7187L12.8436 51.1874L12.9374 42.5625C12.9374 42.4687 12.8436 42.2812 12.8436 42.1875L10.9686 40.0312C10.7811 39.75 10.4061 39.75 10.1249 39.9375L2.15614 46.6875C1.87489 46.875 1.78114 47.25 1.96864 47.5312L3.84364 49.6875C4.03114 49.9687 4.40614 49.9687 4.68739 49.7812L8.34364 46.6875L8.24989 55.5937C8.24989 55.6875 8.34364 55.875 8.34364 55.9687L10.0311 58.0312C10.2186 58.3125 10.5936 58.3125 10.8749 58.125L19.4061 51C19.6874 50.8125 19.6874 50.4375 19.4999 50.1562L17.7186 47.8125C17.5311 47.625 17.1561 47.5312 16.9686 47.7187ZM33.7499 31.4062L27.6561 34.875L29.7186 24C29.7186 23.8125 29.7186 23.625 29.6249 23.5312L27.7499 20.3437C27.5624 19.9687 27.0936 19.875 26.7186 20.0625L15.0936 26.8125C14.7186 27 14.6249 27.4687 14.8124 27.8437L16.5936 30.9374C16.7811 31.3124 17.2499 31.4062 17.6249 31.2187L22.9686 28.125L20.9061 39.375C20.9061 39.5625 20.9061 39.75 20.9999 39.8437L22.6874 42.8437C22.8749 43.2187 23.3436 43.3125 23.7186 43.125L36.0936 36C36.4686 35.8125 36.5624 35.3437 36.3749 34.9687L34.5936 31.7812C34.5936 31.3125 34.1249 31.2187 33.7499 31.4062ZM55.5936 15.7499L48.2811 18.375L52.6874 6.8437C52.7811 6.6562 52.7811 6.4687 52.6874 6.2812L51.2811 2.43745C51.0936 1.9687 50.6249 1.7812 50.2499 1.9687L36.1874 7.0312C35.7186 7.2187 35.5311 7.68745 35.7186 8.06245L37.1249 11.8125C37.3124 12.2812 37.7811 12.4687 38.1561 12.2812L44.6249 9.93745L40.2186 21.8437C40.1249 22.0312 40.1249 22.2187 40.2186 22.4062L41.5311 26.0624C41.7186 26.5312 42.1874 26.7187 42.5624 26.5312L57.5624 21.0937C58.0311 20.9062 58.2186 20.4375 58.0311 20.0625L56.6249 16.2187C56.5311 15.8437 56.0624 15.5624 55.5936 15.7499Z" fill="#F14866"/>
</svg>
