<svg width="868" height="323" viewBox="0 0 868 323" fill="none" xmlns="http://www.w3.org/2000/svg">
<path d="M37.8 201.6H84.8V220H15V81H37.8V201.6ZM204.867 162.2C204.867 166.333 204.601 170.067 204.067 173.4H119.867C120.534 182.2 123.801 189.267 129.667 194.6C135.534 199.933 142.734 202.6 151.267 202.6C163.534 202.6 172.201 197.467 177.267 187.2H201.867C198.534 197.333 192.467 205.667 183.667 212.2C175.001 218.6 164.201 221.8 151.267 221.8C140.734 221.8 131.267 219.467 122.867 214.8C114.601 210 108.067 203.333 103.267 194.8C98.6005 186.133 96.2672 176.133 96.2672 164.8C96.2672 153.467 98.5339 143.533 103.067 135C107.734 126.333 114.201 119.667 122.467 115C130.867 110.333 140.467 108 151.267 108C161.667 108 170.934 110.267 179.067 114.8C187.201 119.333 193.534 125.733 198.067 134C202.601 142.133 204.867 151.533 204.867 162.2ZM181.067 155C180.934 146.6 177.934 139.867 172.067 134.8C166.201 129.733 158.934 127.2 150.267 127.2C142.401 127.2 135.667 129.733 130.067 134.8C124.467 139.733 121.134 146.467 120.067 155H181.067ZM253.905 128.4V189.4C253.905 193.533 254.838 196.533 256.705 198.4C258.705 200.133 262.038 201 266.705 201H280.705V220H262.705C252.438 220 244.571 217.6 239.105 212.8C233.638 208 230.905 200.2 230.905 189.4V128.4H217.905V109.8H230.905V82.4H253.905V109.8H280.705V128.4H253.905ZM341.719 221.8C333.052 221.8 325.252 220.267 318.319 217.2C311.519 214 306.119 209.733 302.119 204.4C298.119 198.933 295.985 192.867 295.719 186.2H319.319C319.719 190.867 321.919 194.8 325.919 198C330.052 201.067 335.185 202.6 341.319 202.6C347.719 202.6 352.652 201.4 356.119 199C359.719 196.467 361.519 193.267 361.519 189.4C361.519 185.267 359.519 182.2 355.519 180.2C351.652 178.2 345.452 176 336.919 173.6C328.652 171.333 321.919 169.133 316.719 167C311.519 164.867 306.985 161.6 303.119 157.2C299.385 152.8 297.519 147 297.519 139.8C297.519 133.933 299.252 128.6 302.719 123.8C306.185 118.867 311.119 115 317.519 112.2C324.052 109.4 331.519 108 339.919 108C352.452 108 362.519 111.2 370.119 117.6C377.852 123.867 381.985 132.467 382.519 143.4H359.719C359.319 138.467 357.319 134.533 353.719 131.6C350.119 128.667 345.252 127.2 339.119 127.2C333.119 127.2 328.519 128.333 325.319 130.6C322.119 132.867 320.519 135.867 320.519 139.6C320.519 142.533 321.585 145 323.719 147C325.852 149 328.452 150.6 331.519 151.8C334.585 152.867 339.119 154.267 345.119 156C353.119 158.133 359.652 160.333 364.719 162.6C369.919 164.733 374.385 167.933 378.119 172.2C381.852 176.467 383.785 182.133 383.919 189.2C383.919 195.467 382.185 201.067 378.719 206C375.252 210.933 370.319 214.8 363.919 217.6C357.652 220.4 350.252 221.8 341.719 221.8Z" fill="white"/>
<path d="M490.955 148C499.088 149.733 505.621 153.8 510.555 160.2C515.488 166.467 517.955 173.667 517.955 181.8C517.955 193.533 513.821 202.867 505.555 209.8C497.421 216.6 486.021 220 471.355 220H405.955V79.6H469.155C483.421 79.6 494.555 82.8667 502.555 89.4C510.688 95.9333 514.755 104.8 514.755 116C514.755 124.267 512.555 131.133 508.155 136.6C503.888 142.067 498.155 145.867 490.955 148ZM440.155 136.4H462.555C468.155 136.4 472.421 135.2 475.355 132.8C478.421 130.267 479.955 126.6 479.955 121.8C479.955 117 478.421 113.333 475.355 110.8C472.421 108.267 468.155 107 462.555 107H440.155V136.4ZM465.355 192.4C471.088 192.4 475.488 191.133 478.555 188.6C481.755 185.933 483.355 182.133 483.355 177.2C483.355 172.267 481.688 168.4 478.355 165.6C475.155 162.8 470.688 161.4 464.955 161.4H440.155V192.4H465.355ZM647.991 108.4V220H613.791V204.8C610.324 209.733 605.591 213.733 599.591 216.8C593.724 219.733 587.191 221.2 579.991 221.2C571.457 221.2 563.924 219.333 557.391 215.6C550.857 211.733 545.791 206.2 542.191 199C538.591 191.8 536.791 183.333 536.791 173.6V108.4H570.791V169C570.791 176.467 572.724 182.267 576.591 186.4C580.457 190.533 585.657 192.6 592.191 192.6C598.857 192.6 604.124 190.533 607.991 186.4C611.857 182.267 613.791 176.467 613.791 169V108.4H647.991ZM786.556 108.4L716.556 273H679.756L705.356 216.2L659.956 108.4H698.156L723.956 178.2L749.556 108.4H786.556Z" fill="#F14866"/>
<path d="M845.803 278.303L812.697 245.197C811.29 243.79 809.383 243 807.393 243H775.5C771.358 243 768 246.358 768 250.5V282.393C768 284.383 768.79 286.29 770.197 287.697L803.303 320.803C806.232 323.732 810.981 323.732 813.91 320.803L845.803 288.91C848.732 285.981 848.732 281.232 845.803 278.303ZM785.5 268C781.358 268 778 264.642 778 260.5C778 256.358 781.358 253 785.5 253C789.642 253 793 256.358 793 260.5C793 264.642 789.642 268 785.5 268ZM865.803 288.91L833.91 320.803C830.981 323.732 826.232 323.732 823.303 320.803L823.247 320.747L850.444 293.55C853.1 290.894 854.563 287.363 854.563 283.607C854.563 279.85 853.1 276.319 850.444 273.663L819.781 243H827.393C829.383 243 831.29 243.79 832.697 245.197L865.803 278.303C868.732 281.232 868.732 285.981 865.803 288.91Z" fill="#F14866"/>
</svg>
