<svg width="24" height="24" viewBox="0 0 24 24" fill="none" xmlns="http://www.w3.org/2000/svg">
<path d="M11.115 16.4789C10.8738 16.4815 10.641 16.3905 10.4658 16.2252C10.2906 16.0599 10.1867 15.8332 10.176 15.5929C10.174 15.5509 10.17 15.4379 10.073 15.4379C10.033 15.4379 9.999 15.4609 9.96 15.4969C9.848 15.5999 9.706 15.7029 9.5 15.7029C9.39502 15.7007 9.29146 15.6783 9.195 15.6369C8.66 15.4229 8.653 15.0589 8.674 14.9119C8.68 14.8739 8.681 14.8319 8.654 14.8019L8.622 14.7719H8.588C8.561 14.7719 8.533 14.7839 8.495 14.8109C8.36411 14.9102 8.20536 14.9662 8.041 14.9709C7.95429 14.9701 7.8685 14.9531 7.788 14.9209C7.08 14.6509 7.138 13.9929 7.171 13.7949C7.176 13.7539 7.166 13.7229 7.141 13.7029L7.091 13.6629L7.044 13.7059C6.90833 13.8362 6.72733 13.909 6.539 13.9089C6.34557 13.9095 6.15983 13.8334 6.02258 13.6975C5.88533 13.5616 5.8078 13.3768 5.807 13.1839C5.807 12.7839 6.135 12.4619 6.539 12.4619C6.903 12.4619 7.214 12.7319 7.26 13.0919L7.286 13.2869L7.396 13.1219C7.406 13.1039 7.703 12.6619 8.248 12.6619C8.35 12.6619 8.458 12.6779 8.564 12.7119C8.998 12.8419 9.072 13.2319 9.083 13.3919C9.091 13.4859 9.158 13.4919 9.173 13.4919C9.21 13.4919 9.237 13.4679 9.256 13.4469C9.32615 13.3751 9.41016 13.3181 9.50295 13.2794C9.59575 13.2408 9.69543 13.2212 9.796 13.2219C9.924 13.2219 10.059 13.2519 10.198 13.3119C10.888 13.6049 10.577 14.4699 10.572 14.4789C10.514 14.6229 10.511 14.6859 10.567 14.7229L10.594 14.7359H10.614C10.644 14.7359 10.684 14.7219 10.748 14.7009C10.841 14.6689 10.983 14.6209 11.115 14.6209C11.3626 14.622 11.5999 14.72 11.7757 14.894C11.9515 15.068 12.0518 15.3039 12.055 15.5509C12.0534 15.7983 11.9535 16.0349 11.7773 16.2089C11.6011 16.3829 11.3629 16.48 11.115 16.4789ZM18.417 12.3079C17.279 11.3279 14.649 9.06795 13.936 8.53795C13.53 8.23595 13.251 8.07595 13.008 8.00495C12.8603 7.9592 12.7066 7.93561 12.552 7.93495C12.37 7.93495 12.176 7.96695 11.972 8.02995C11.512 8.17495 11.054 8.53495 10.61 8.88395L10.587 8.90195C10.173 9.22595 9.747 9.56195 9.423 9.63195C9.28189 9.66385 9.1377 9.68028 8.993 9.68095C8.631 9.68095 8.306 9.57695 8.183 9.42295C8.163 9.39795 8.176 9.35695 8.223 9.29795L8.231 9.28995L9.231 8.22295C10.014 7.44895 10.756 6.71695 12.461 6.67795H12.546C13.608 6.67795 14.666 7.14695 14.786 7.20195C15.737 7.67064 16.7818 7.91815 17.842 7.92595C18.918 7.92595 20.03 7.66295 21.196 7.13095C21.064 7.02151 20.929 6.9158 20.791 6.81395C19.766 7.25395 18.788 7.47395 17.845 7.47395C16.883 7.47395 15.92 7.24495 14.987 6.79395C14.937 6.77195 13.767 6.22695 12.547 6.22395C12.515 6.22395 12.482 6.22395 12.451 6.22595C11.017 6.25895 10.211 6.76195 9.669 7.20195C9.141 7.21495 8.687 7.33995 8.281 7.45195C7.92 7.55195 7.608 7.63795 7.302 7.63695C7.177 7.63695 6.952 7.62695 6.932 7.62495C6.582 7.61495 4.817 7.18795 3.414 6.66295C3.271 6.76295 3.134 6.86595 2.999 6.97295C4.465 7.56595 6.249 8.02595 6.811 8.06195C6.968 8.07195 7.134 8.08895 7.302 8.08895C7.674 8.08895 8.046 7.98595 8.406 7.88595C8.619 7.82695 8.852 7.76295 9.098 7.71595L8.902 7.90995L7.885 8.99695C7.805 9.07695 7.631 9.29095 7.745 9.55395C7.80444 9.67487 7.89746 9.77622 8.013 9.84595C8.256 10.0079 8.69 10.1159 9.093 10.1169C9.245 10.1169 9.39 10.1019 9.523 10.0729C9.95 9.97795 10.397 9.62495 10.872 9.25295C11.249 8.95695 11.785 8.58095 12.195 8.47095C12.3158 8.43891 12.4401 8.42212 12.565 8.42095C12.5967 8.42014 12.6285 8.42182 12.66 8.42595C12.93 8.45995 13.193 8.55095 13.663 8.89795C14.498 9.51795 18.194 12.7129 18.229 12.7439C18.231 12.7459 18.467 12.9469 18.449 13.2809C18.442 13.4669 18.339 13.6329 18.155 13.7469C18.0114 13.8421 17.8434 13.8941 17.671 13.8969C17.5195 13.8967 17.3711 13.8537 17.243 13.7729C17.229 13.7629 15.963 12.6159 15.497 12.2299C15.423 12.1699 15.351 12.1149 15.277 12.1149C15.2586 12.1147 15.2405 12.1187 15.2239 12.1265C15.2072 12.1343 15.1926 12.1457 15.181 12.1599C15.108 12.2499 15.191 12.3719 15.286 12.4539L16.766 13.9239C16.768 13.9239 16.95 14.0939 16.97 14.3189C16.982 14.5629 16.864 14.7659 16.62 14.9249C16.4654 15.0324 16.2824 15.0919 16.094 15.0959C15.9446 15.0954 15.7986 15.0512 15.674 14.9689L15.46 14.7629C15.112 14.4141 14.7518 14.0775 14.38 13.7539C14.308 13.6959 14.232 13.6419 14.159 13.6419C14.1416 13.6415 14.1242 13.6446 14.108 13.6512C14.0919 13.6577 14.0772 13.6675 14.065 13.6799C14.032 13.7169 14.009 13.7829 14.093 13.8919C14.1157 13.9216 14.1408 13.9493 14.168 13.9749L15.246 15.1729C15.256 15.1829 15.468 15.4329 15.27 15.6839L15.232 15.7319C15.2006 15.7659 15.1672 15.7979 15.132 15.8279C14.948 15.9779 14.702 15.9919 14.605 15.9919C14.5557 15.9925 14.5065 15.9885 14.458 15.9799C14.352 15.9619 14.28 15.9319 14.246 15.8909L14.233 15.8779C14.173 15.8179 13.631 15.2689 13.179 14.8979C13.12 14.8479 13.046 14.7879 12.969 14.7879C12.9509 14.7878 12.9331 14.7914 12.9165 14.7987C12.9 14.8059 12.8851 14.8166 12.873 14.8299C12.783 14.9259 12.917 15.0699 12.973 15.1229L13.893 16.1259C13.8857 16.1484 13.8745 16.1693 13.86 16.1879C13.827 16.2319 13.716 16.3429 13.381 16.3839C13.3405 16.389 13.2998 16.3913 13.259 16.3909C12.914 16.3909 12.547 16.2269 12.357 16.1269C12.4427 15.947 12.4871 15.7502 12.487 15.5509C12.4861 15.3679 12.4482 15.1869 12.3758 15.0188C12.3033 14.8506 12.1977 14.6987 12.0652 14.5721C11.9328 14.4455 11.7761 14.3468 11.6046 14.2819C11.4331 14.2169 11.2503 14.187 11.067 14.1939C11.091 13.8519 11.042 13.2039 10.37 12.9199C10.1889 12.8396 9.9932 12.7971 9.795 12.7949C9.649 12.7949 9.508 12.8199 9.375 12.8699C9.2346 12.6011 8.99345 12.3984 8.704 12.3059C8.54519 12.2506 8.37825 12.2218 8.21 12.2209C7.93 12.2209 7.673 12.3009 7.443 12.4629C7.33382 12.329 7.19617 12.221 7.04 12.1466C6.88384 12.0722 6.71305 12.0334 6.54 12.0329C6.23327 12.0334 5.93891 12.1536 5.72 12.3679C5.433 12.1509 4.295 11.4379 1.253 10.7549C1.02105 10.6967 0.790339 10.6337 0.561 10.5659C0.526801 10.7292 0.5011 10.8941 0.484 11.0599L1.154 11.2169C4.262 11.8989 5.29 12.6079 5.463 12.7419C5.40384 12.8818 5.37324 13.0321 5.373 13.1839C5.37379 13.354 5.41209 13.5218 5.48518 13.6754C5.55827 13.829 5.66436 13.9647 5.7959 14.0728C5.92745 14.1808 6.08122 14.2586 6.24629 14.3007C6.41136 14.3427 6.58368 14.3479 6.751 14.3159C6.847 14.7829 7.157 15.1369 7.63 15.3189C7.76229 15.3706 7.90293 15.3977 8.045 15.3989C8.135 15.3989 8.224 15.3869 8.311 15.3649C8.397 15.5849 8.593 15.8579 9.033 16.0329C9.17795 16.093 9.33306 16.1249 9.49 16.1269C9.612 16.1269 9.731 16.1049 9.845 16.0639C9.94968 16.3135 10.1261 16.5265 10.3519 16.6762C10.5777 16.8258 10.8429 16.9054 11.114 16.9049C11.484 16.9069 11.84 16.7579 12.099 16.4949C12.32 16.6159 12.787 16.8359 13.262 16.8359C13.322 16.8359 13.38 16.8339 13.437 16.8259C13.907 16.7669 14.126 16.5859 14.226 16.4439C14.2441 16.4193 14.2601 16.3932 14.274 16.3659C14.384 16.3979 14.508 16.4239 14.647 16.4239C14.902 16.4239 15.148 16.3379 15.397 16.1589C15.641 15.9849 15.815 15.7349 15.841 15.5219V15.5119C15.924 15.5289 16.008 15.5379 16.092 15.5379C16.357 15.5379 16.619 15.4559 16.865 15.2959C17.345 14.9859 17.427 14.5809 17.419 14.3159C17.5867 14.3506 17.7597 14.3513 17.9277 14.318C18.0957 14.2847 18.2553 14.218 18.397 14.1219C18.5389 14.0369 18.6585 13.9192 18.7458 13.7787C18.8331 13.6382 18.8856 13.4788 18.899 13.3139C18.9163 13.0849 18.8603 12.8562 18.739 12.6609C19.543 12.3189 21.375 11.6579 23.534 11.1779C23.5203 11.0129 23.498 10.8487 23.467 10.6859C21.736 11.0639 20.0453 11.6064 18.418 12.3059L18.417 12.3079ZM23.54 11.5449C23.54 15.5719 18.374 18.8379 12.003 18.8379C5.631 18.8379 0.465 15.5719 0.465 11.5449C0.465 7.51695 5.63 4.25195 12.004 4.25195C18.375 4.25195 23.54 7.51695 23.54 11.5449ZM24 11.5489C24 7.27695 18.626 3.79395 12 3.79395C5.374 3.79395 0.002 7.27695 0.002 11.5499L0 12.0039C0 16.5369 4.695 20.2069 11.999 20.2069C19.346 20.2069 23.999 16.5369 23.999 12.0029L24 11.5489Z" fill="#0A0080"/>
</svg>
