<svg width="25" height="25" viewBox="0 0 25 25" fill="none" xmlns="http://www.w3.org/2000/svg">
<path d="M15.8802 6.43652H9.12012V18.5846H15.8802V6.43652Z" fill="#FF5F00"/>
<path d="M9.54934 12.511C9.54828 11.341 9.8134 10.1862 10.3246 9.13384C10.8359 8.0815 11.5798 7.15926 12.5002 6.43694C11.3604 5.54109 9.99167 4.98398 8.5503 4.82928C7.10893 4.67458 5.65311 4.92852 4.34924 5.5621C3.04537 6.19567 1.94606 7.1833 1.17696 8.41211C0.40786 9.64092 0 11.0613 0 12.511C0 13.9606 0.40786 15.381 1.17696 16.6098C1.94606 17.8387 3.04537 18.8263 4.34924 19.4599C5.65311 20.0934 7.10893 20.3474 8.5503 20.1927C9.99167 20.038 11.3604 19.4809 12.5002 18.585C11.5798 17.8627 10.8359 16.9405 10.3246 15.8881C9.8134 14.8358 9.54828 13.6809 9.54934 12.511Z" fill="#EB001B"/>
<path d="M25 12.511C25.0001 13.9606 24.5923 15.381 23.8232 16.6098C23.0541 17.8386 21.9549 18.8263 20.651 19.4598C19.3472 20.0934 17.8914 20.3474 16.45 20.1927C15.0087 20.038 13.6399 19.4809 12.5002 18.585C13.4198 17.862 14.1631 16.9396 14.6743 15.8874C15.1854 14.8352 15.451 13.6807 15.451 12.511C15.451 11.3412 15.1854 10.1867 14.6743 9.13455C14.1631 8.08238 13.4198 7.15999 12.5002 6.43694C13.6399 5.54109 15.0087 4.98398 16.45 4.82928C17.8914 4.67458 19.3472 4.92853 20.651 5.56211C21.9549 6.19569 23.0541 7.18332 23.8232 8.41213C24.5923 9.64094 25.0001 11.0613 25 12.511Z" fill="#F79E1B"/>
<path d="M24.263 17.2979V17.0492H24.3633V16.9985H24.1079V17.0492H24.2082V17.2979H24.263ZM24.7589 17.2979V16.998H24.6806L24.5905 17.2043L24.5005 16.998H24.4221V17.2979H24.4774V17.0717L24.5619 17.2667H24.6192L24.7036 17.0712V17.2979H24.7589Z" fill="#F79E1B"/>
</svg>
