<svg width="25" height="25" viewBox="0 0 25 25" fill="none" xmlns="http://www.w3.org/2000/svg">
<path d="M12.3784 8.58987L10.7082 16.3984H8.68792L10.3583 8.58987H12.3784ZM20.8773 13.632L21.9406 10.6997L22.5525 13.632H20.8773ZM23.132 16.3984H25L23.3681 8.58987H21.645C21.2567 8.58987 20.9293 8.81503 20.7844 9.16224L17.7533 16.3984H19.8748L20.296 15.2323H22.8874L23.132 16.3984ZM17.8585 13.8492C17.8673 11.7884 15.0096 11.6742 15.0288 10.7534C15.0349 10.4737 15.3019 10.1756 15.8853 10.0994C16.1746 10.0622 16.9728 10.0319 17.8776 10.4489L18.2315 8.79237C17.7455 8.61657 17.1201 8.44727 16.3419 8.44727C14.3449 8.44727 12.94 9.50805 12.9288 11.0283C12.916 12.1525 13.9323 12.7793 14.6965 13.1537C15.4843 13.5364 15.7483 13.7818 15.7444 14.1237C15.739 14.6476 15.1162 14.8796 14.5363 14.8884C13.5201 14.9042 12.9311 14.6137 12.4616 14.3949L12.0949 16.1067C12.5677 16.3231 13.4388 16.5114 14.3408 16.521C16.464 16.521 17.8521 15.4727 17.8585 13.8492ZM9.49177 8.58987L6.21861 16.3984H4.08351L2.47266 10.1667C2.37501 9.78344 2.28983 9.64258 1.99284 9.48066C1.50706 9.21686 0.705143 8.97011 0 8.81661L0.0477711 8.58987H3.48515C3.92298 8.58987 4.31692 8.88124 4.4172 9.38564L5.26811 13.9045L7.36949 8.58987H9.49177Z" fill="#1434CB"/>
</svg>
