<svg width="25" height="25" viewBox="0 0 25 25" fill="none" xmlns="http://www.w3.org/2000/svg">
<path d="M3.89734 9.83125C4.17818 9.73743 4.47841 9.68702 4.79105 9.68702C6.15424 9.68702 7.29238 10.6553 7.55308 11.9423L9.48547 11.5481C9.04198 9.36088 7.10911 7.71484 4.79105 7.71484C4.25987 7.71484 3.74959 7.80141 3.27222 7.96091L3.89734 9.83125Z" fill="#FFCC00"/>
<path d="M1.61677 16.094L2.92355 14.6166C2.34021 14.0998 1.97217 13.3456 1.97217 12.5053C1.97217 11.6656 2.33971 10.9118 2.92266 10.3956L1.61577 8.91797C0.625115 9.79566 0 11.0777 0 12.5053C0 13.9338 0.625364 15.2162 1.61677 16.094Z" fill="#00A0DE"/>
<path d="M7.55261 13.0703C7.29077 14.3567 6.15389 15.3231 4.79108 15.3231C4.47834 15.3231 4.17723 15.2727 3.89651 15.1783L3.27051 17.0494C3.74801 17.2088 4.25929 17.2951 4.79108 17.2951C7.1069 17.2951 9.03954 15.6518 9.48474 13.4666L7.55261 13.0703Z" fill="#EC3413"/>
<path d="M11.1754 14.6788C11.1121 14.5763 11.026 14.4123 10.9742 14.2915C10.6682 13.5811 10.6536 12.8459 10.912 12.1401C11.1961 11.3661 11.7389 10.7735 12.4402 10.4718C13.3219 10.0924 14.2971 10.1672 15.1421 10.6686C15.6789 10.9766 16.0595 11.4521 16.3484 12.1243L16.3752 12.1897L16.4253 12.3196C16.4333 12.3405 16.4412 12.3609 16.4491 12.3804L11.1754 14.6788ZM12.9364 11.6123C12.3102 11.8814 11.9875 12.4687 12.0538 13.1574L14.7061 12.0159C14.25 11.4798 13.6564 11.3022 12.9364 11.6123ZM16.0621 14.7814L15.0369 14.096L15.0354 14.0975L14.9805 14.0605C14.8222 14.3173 14.5753 14.5253 14.2637 14.6605C13.6708 14.9183 13.1214 14.852 12.7268 14.506L12.6906 14.5611C12.6902 14.5605 12.69 14.56 12.6894 14.56L12.0165 15.5667C12.1835 15.6828 12.3629 15.7811 12.5513 15.8596C13.2946 16.1684 14.0551 16.1541 14.8043 15.8283C15.3463 15.5934 15.7715 15.2353 16.0621 14.7814ZM18.2925 8.98926V14.5859L19.1625 14.9386L18.6681 16.0922L17.7076 15.6923C17.4921 15.5989 17.3453 15.4561 17.2342 15.2948C17.128 15.1304 17.0486 14.9049 17.0486 14.6012V8.98926H18.2925ZM20.5466 13.1602C20.5471 12.6835 20.7575 12.2562 21.0905 11.9657L20.1978 10.9703C19.5923 11.5055 19.211 12.2875 19.2103 13.1588C19.2093 14.0303 19.5901 14.8132 20.1949 15.3497L21.0866 14.3533C20.7552 14.0617 20.5462 13.6356 20.5466 13.1602ZM22.1327 14.7487C21.9569 14.7481 21.7877 14.7191 21.6298 14.6666L21.2035 15.9342C21.4948 16.032 21.8069 16.0853 22.1313 16.0858C23.5448 16.0872 24.7251 15.0843 24.9986 13.751L23.6882 13.4834C23.5392 14.2061 22.8993 14.7492 22.1327 14.7487ZM22.1366 10.2375C21.8126 10.2371 21.5006 10.2898 21.2096 10.3867L21.6322 11.6555C21.7906 11.6032 21.9598 11.5743 22.1353 11.5743C22.9037 11.575 23.5441 12.1213 23.6896 12.846L25.0001 12.5802C24.7304 11.245 23.5512 10.2384 22.1366 10.2375Z" fill="black"/>
</svg>
