<svg width="25" height="25" viewBox="0 0 25 25" fill="none" xmlns="http://www.w3.org/2000/svg">
<g clip-path="url(#clip0_660_558)">
<path d="M19.2157 10.7891H17.832C17.7376 10.7891 17.657 10.8578 17.6423 10.9513L17.0828 14.4988C17.0716 14.5688 17.1258 14.6319 17.1964 14.6319H17.9065C17.9724 14.6319 18.0289 14.5838 18.0392 14.5182L18.198 13.5127C18.2125 13.419 18.2932 13.3502 18.3877 13.3502H18.8255C19.737 13.3502 20.2627 12.9092 20.4003 12.0354C20.4624 11.653 20.4027 11.3526 20.2237 11.1423C20.0273 10.9112 19.6787 10.7891 19.2157 10.7891ZM19.3753 12.0847C19.2998 12.5811 18.9205 12.5811 18.5536 12.5811H18.345L18.4917 11.654C18.5004 11.598 18.5485 11.5567 18.6054 11.5567H18.7011C18.9507 11.5567 19.1865 11.5567 19.3083 11.6992C19.3809 11.7841 19.403 11.9103 19.3753 12.0847Z" fill="#179BD7"/>
<path d="M23.3508 12.0691H22.6887C22.6319 12.0691 22.5836 12.1104 22.5751 12.1664L22.5457 12.3517L22.4992 12.2846C22.3558 12.0764 22.0362 12.0068 21.717 12.0068C20.9849 12.0068 20.3598 12.5613 20.238 13.3391C20.1749 13.7271 20.2645 14.0981 20.4846 14.3568C20.6869 14.5947 20.9754 14.6938 21.3191 14.6938C21.9089 14.6938 22.236 14.3145 22.236 14.3145L22.2065 14.4986C22.1954 14.569 22.2496 14.6321 22.3206 14.6321H22.9171C23.0116 14.6321 23.0921 14.5634 23.1069 14.4697L23.4651 12.2022C23.476 12.1325 23.4218 12.0691 23.3508 12.0691ZM22.4274 13.3585C22.3639 13.737 22.0631 13.9911 21.6799 13.9911C21.488 13.9911 21.3338 13.9294 21.2351 13.8125C21.1372 13.6963 21.1004 13.5311 21.1311 13.347C21.1912 12.9717 21.4963 12.7094 21.8735 12.7094C22.0616 12.7094 22.2146 12.7719 22.3153 12.8898C22.4167 13.009 22.4567 13.1753 22.4274 13.3585Z" fill="#179BD7"/>
<path d="M24.1318 10.8866L23.564 14.499C23.5528 14.569 23.607 14.6321 23.6776 14.6321H24.2485C24.3434 14.6321 24.4239 14.5634 24.4384 14.4697L24.9984 10.9224C25.0095 10.8524 24.9553 10.7891 24.8847 10.7891H24.2455C24.189 10.7893 24.1405 10.8305 24.1318 10.8866Z" fill="#179BD7"/>
<path d="M9.348 10.7891H7.96455C7.86988 10.7891 7.78937 10.8578 7.7746 10.9513L7.21508 14.4988C7.20395 14.5688 7.25816 14.6319 7.32917 14.6319H7.98964C8.08431 14.6319 8.16482 14.5631 8.17958 14.4695L8.33049 13.5127C8.34506 13.419 8.42577 13.3502 8.52024 13.3502H8.95819C9.8695 13.3502 10.3954 12.9092 10.5328 12.0354C10.5947 11.653 10.5354 11.3526 10.3564 11.1423C10.1598 10.9112 9.81104 10.7891 9.348 10.7891ZM9.5076 12.0847C9.43195 12.5811 9.05266 12.5811 8.68591 12.5811H8.47715L8.62361 11.654C8.63231 11.598 8.68085 11.5567 8.73749 11.5567H8.83318C9.083 11.5567 9.31867 11.5567 9.44045 11.6992C9.51307 11.7841 9.53532 11.9103 9.5076 12.0847Z" fill="#253B80"/>
<path d="M13.4835 12.0691H12.821C12.7646 12.0691 12.7159 12.1104 12.7072 12.1664L12.6778 12.3517L12.6315 12.2846C12.4881 12.0764 12.1683 12.0068 11.849 12.0068C11.117 12.0068 10.4917 12.5613 10.3699 13.3391C10.3066 13.7271 10.3966 14.0981 10.6167 14.3568C10.8186 14.5947 11.1075 14.6938 11.4511 14.6938C12.041 14.6938 12.3681 14.3145 12.3681 14.3145L12.3386 14.4986C12.3275 14.569 12.3817 14.6321 12.4523 14.6321H13.049C13.1439 14.6321 13.224 14.5634 13.239 14.4697L13.597 12.2022C13.6083 12.1325 13.5543 12.0691 13.4835 12.0691ZM12.5601 13.3585C12.4962 13.737 12.1958 13.9911 11.8126 13.9911C11.6203 13.9911 11.4665 13.9294 11.3678 13.8125C11.2699 13.6963 11.2327 13.5311 11.2638 13.347C11.3235 12.9717 11.629 12.7094 12.0062 12.7094C12.1944 12.7094 12.3473 12.7719 12.448 12.8898C12.549 13.009 12.589 13.1753 12.5601 13.3585Z" fill="#253B80"/>
<path d="M17.0117 12.0684H16.346C16.2824 12.0684 16.2228 12.0999 16.1868 12.1527L15.2686 13.5052L14.8794 12.2055C14.8549 12.1242 14.7798 12.0684 14.6949 12.0684H14.0407C13.9612 12.0684 13.906 12.146 13.9312 12.2209L14.6645 14.3728L13.9751 15.346C13.9209 15.4227 13.9755 15.5281 14.0692 15.5281H14.7341C14.7972 15.5281 14.8563 15.4973 14.8921 15.4456L17.1064 12.2494C17.1594 12.1729 17.1049 12.0684 17.0117 12.0684Z" fill="#253B80"/>
<path d="M1.4698 15.3212L1.57559 14.6492L1.33993 14.6438H0.2146L0.996645 9.68507C0.999072 9.6701 1.00696 9.65615 1.01849 9.64623C1.03002 9.63632 1.04479 9.63086 1.06016 9.63086H2.95762C3.58755 9.63086 4.02227 9.76194 4.24923 10.0207C4.35564 10.142 4.4234 10.2689 4.45617 10.4085C4.49056 10.5549 4.49117 10.7299 4.45759 10.9433L4.45516 10.9589V11.0956L4.56156 11.1559C4.65118 11.2034 4.72238 11.2579 4.777 11.3202C4.86803 11.4239 4.9269 11.5558 4.95178 11.7122C4.97747 11.873 4.96897 12.0644 4.9269 12.281C4.87835 12.5303 4.79986 12.7473 4.69386 12.9249C4.59636 13.0886 4.47215 13.2243 4.32469 13.3295C4.18389 13.4294 4.0166 13.5053 3.82746 13.5538C3.64419 13.6016 3.43523 13.6256 3.20603 13.6256H3.05836C2.95277 13.6256 2.85021 13.6637 2.7697 13.7318C2.68899 13.8014 2.63558 13.8965 2.6192 14.0005L2.60807 14.061L2.42116 15.2454L2.41266 15.2889C2.41044 15.3026 2.40659 15.3095 2.40093 15.3141C2.39587 15.3184 2.38859 15.3212 2.38151 15.3212H1.4698Z" fill="#253B80"/>
<path d="M4.66246 10.9746C4.6568 11.0108 4.65032 11.0478 4.64304 11.0859C4.39281 12.3706 3.53673 12.8144 2.44336 12.8144H1.88667C1.75295 12.8144 1.64028 12.9115 1.61944 13.0434L1.33442 14.8511L1.25371 15.3634C1.24015 15.45 1.30691 15.5281 1.3943 15.5281H2.38166C2.49859 15.5281 2.59791 15.4432 2.61632 15.3278L2.62603 15.2777L2.81193 14.0979L2.82387 14.0332C2.84207 13.9175 2.9416 13.8325 3.05852 13.8325H3.20619C4.16281 13.8325 4.91168 13.4441 5.13055 12.3202C5.22199 11.8507 5.17465 11.4587 4.93272 11.183C4.85949 11.0998 4.76866 11.0308 4.66246 10.9746Z" fill="#179BD7"/>
<path d="M4.40064 10.8701C4.36241 10.859 4.32296 10.8488 4.28251 10.8397C4.24185 10.8308 4.20017 10.823 4.15729 10.8161C4.00719 10.7918 3.84273 10.7803 3.66654 10.7803H2.17932C2.1427 10.7803 2.10791 10.7886 2.07676 10.8035C2.00818 10.8365 1.95721 10.9014 1.94487 10.9809L1.62849 12.9848L1.61938 13.0433C1.64022 12.9114 1.75289 12.8143 1.88661 12.8143H2.4433C3.53667 12.8143 4.39275 12.3703 4.64298 11.0857C4.65047 11.0477 4.65674 11.0107 4.6624 10.9745C4.59909 10.9409 4.53051 10.9122 4.45668 10.8877C4.43847 10.8816 4.41966 10.8758 4.40064 10.8701Z" fill="#222D65"/>
<path d="M1.94479 10.9812C1.95713 10.9017 2.00811 10.8368 2.07669 10.804C2.10804 10.7891 2.14263 10.7808 2.17925 10.7808H3.66647C3.84266 10.7808 4.00712 10.7923 4.15722 10.8166C4.2001 10.8235 4.24177 10.8313 4.28243 10.8402C4.32289 10.8494 4.36234 10.8595 4.40057 10.8706C4.41958 10.8763 4.4384 10.8821 4.45681 10.888C4.53064 10.9125 4.59922 10.9414 4.66253 10.9748C4.73697 10.5 4.66193 10.1767 4.40522 9.88403C4.12222 9.56179 3.61144 9.42383 2.95785 9.42383H1.06039C0.926881 9.42383 0.812993 9.52093 0.79236 9.65302L0.00202062 14.6627C-0.0135556 14.7618 0.0629093 14.8512 0.16284 14.8512H1.33429L1.62842 12.9851L1.94479 10.9812Z" fill="#253B80"/>
</g>
<defs>
<clipPath id="clip0_660_558">
<rect width="25" height="25" fill="white"/>
</clipPath>
</defs>
</svg>
