<svg width="24" height="24" viewBox="0 0 24 24" fill="none" xmlns="http://www.w3.org/2000/svg">
<path d="M15.4499 16.5203L12.4399 13.5103C12.3299 13.4003 12.1999 13.3803 12.1299 13.3803C12.0599 13.3803 11.9299 13.4003 11.8199 13.5103L8.79991 16.5303C8.45991 16.8703 7.92991 17.4203 6.15991 17.4203L9.86991 21.1203C10.4324 21.6821 11.1949 21.9977 11.9899 21.9977C12.7849 21.9977 13.5474 21.6821 14.1099 21.1203L17.8299 17.4103C16.9199 17.4103 16.1599 17.2303 15.4499 16.5203ZM8.79991 7.47029L11.8199 10.4903C11.8999 10.5703 12.0199 10.6203 12.1299 10.6203C12.2399 10.6203 12.3599 10.5703 12.4399 10.4903L15.4299 7.50029C16.1399 6.76029 16.9499 6.59029 17.8599 6.59029L14.1399 2.88029C13.5774 2.31849 12.8149 2.00293 12.0199 2.00293C11.2249 2.00293 10.4624 2.31849 9.89991 2.88029L6.18991 6.58029C7.94991 6.58029 8.48991 7.16029 8.79991 7.47029Z" fill="#38B39F"/>
<path d="M21.11 9.85031L18.86 7.59031H17.6C17.06 7.59031 16.52 7.81031 16.15 8.20031L13.15 11.2003C12.87 11.4803 12.5 11.6203 12.13 11.6203C11.749 11.6149 11.3844 11.4648 11.11 11.2003L8.09005 8.17031C7.71005 7.79031 7.19005 7.57031 6.64005 7.57031H5.17005L2.88005 9.87031C2.31824 10.4328 2.00269 11.1953 2.00269 11.9903C2.00269 12.7853 2.31824 13.5478 2.88005 14.1103L5.17005 16.4103H6.65005C7.19005 16.4103 7.71005 16.1903 8.10005 15.8103L11.12 12.7903C11.4 12.5103 11.77 12.3703 12.14 12.3703C12.51 12.3703 12.88 12.5103 13.16 12.7903L16.17 15.8003C16.55 16.1803 17.07 16.4003 17.62 16.4003H18.88L21.13 14.1403C21.6942 13.5677 22.0088 12.795 22.005 11.9912C22.0013 11.1873 21.6795 10.4177 21.11 9.85031Z" fill="#38B39F"/>
</svg>
