<svg width="21" height="21" viewBox="0 0 21 21" fill="none" xmlns="http://www.w3.org/2000/svg">
<path d="M10.5 1.75C7.11375 1.75 4.375 4.48875 4.375 7.875C4.375 12.4688 10.5 19.25 10.5 19.25C10.5 19.25 16.625 12.4688 16.625 7.875C16.625 4.48875 13.8862 1.75 10.5 1.75ZM10.5 10.0625C9.91984 10.0625 9.36344 9.83203 8.9532 9.4218C8.54297 9.01156 8.3125 8.45516 8.3125 7.875C8.3125 7.29484 8.54297 6.73844 8.9532 6.3282C9.36344 5.91797 9.91984 5.6875 10.5 5.6875C11.0802 5.6875 11.6366 5.91797 12.0468 6.3282C12.457 6.73844 12.6875 7.29484 12.6875 7.875C12.6875 8.45516 12.457 9.01156 12.0468 9.4218C11.6366 9.83203 11.0802 10.0625 10.5 10.0625Z" fill="#E6E1DD"/>
</svg>
