<svg width="31" height="35" viewBox="0 0 31 35" fill="none" xmlns="http://www.w3.org/2000/svg">
<path d="M26 1V9" stroke="#C6C6C6" stroke-linecap="round" stroke-linejoin="round"/>
<path d="M22 5H30" stroke="#C6C6C6" stroke-linecap="round" stroke-linejoin="round"/>
<path d="M28.75 28.75C28.75 29.413 28.4866 30.0489 28.0178 30.5178C27.5489 30.9866 26.913 31.25 26.25 31.25H3.75C3.08696 31.25 2.45107 30.9866 1.98223 30.5178C1.51339 30.0489 1.25 29.413 1.25 28.75V15C1.25 14.337 1.51339 13.7011 1.98223 13.2322C2.45107 12.7634 3.08696 12.5 3.75 12.5H8.75L11.25 8.75H18.75L21.25 12.5H26.25C26.913 12.5 27.5489 12.7634 28.0178 13.2322C28.4866 13.7011 28.75 14.337 28.75 15V28.75Z" stroke="#C6C6C6" stroke-width="1.5" stroke-linecap="round" stroke-linejoin="round"/>
<path d="M15 26.25C17.7614 26.25 20 24.0114 20 21.25C20 18.4886 17.7614 16.25 15 16.25C12.2386 16.25 10 18.4886 10 21.25C10 24.0114 12.2386 26.25 15 26.25Z" stroke="#C6C6C6" stroke-width="1.5" stroke-linecap="round" stroke-linejoin="round"/>
</svg>
