<svg width="25" height="25" viewBox="0 0 25 25" fill="none" xmlns="http://www.w3.org/2000/svg">
<path d="M11.4585 4.16699H4.16683C3.61429 4.16699 3.08439 4.38649 2.69369 4.77719C2.30299 5.16789 2.0835 5.69779 2.0835 6.25033V20.8337C2.0835 21.3862 2.30299 21.9161 2.69369 22.3068C3.08439 22.6975 3.61429 22.917 4.16683 22.917H18.7502C19.3027 22.917 19.8326 22.6975 20.2233 22.3068C20.614 21.9161 20.8335 21.3862 20.8335 20.8337V13.542" stroke="black" stroke-width="2" stroke-linecap="round" stroke-linejoin="round"/>
<path d="M19.271 2.60424C19.6854 2.18984 20.2474 1.95703 20.8335 1.95703C21.4195 1.95703 21.9816 2.18984 22.396 2.60424C22.8104 3.01864 23.0432 3.58069 23.0432 4.16674C23.0432 4.75279 22.8104 5.31484 22.396 5.72924L12.5002 15.6251L8.3335 16.6667L9.37516 12.5001L19.271 2.60424Z" stroke="black" stroke-width="2" stroke-linecap="round" stroke-linejoin="round"/>
</svg>
