<svg width="772" height="194" viewBox="0 0 772 194" fill="none" xmlns="http://www.w3.org/2000/svg">
<path d="M22.8 122.6H69.8V141H5.96046e-07V1.99999H22.8V122.6ZM189.867 83.2C189.867 87.3333 189.601 91.0667 189.067 94.4H104.867C105.534 103.2 108.801 110.267 114.667 115.6C120.534 120.933 127.734 123.6 136.267 123.6C148.534 123.6 157.201 118.467 162.267 108.2H186.867C183.534 118.333 177.467 126.667 168.667 133.2C160.001 139.6 149.201 142.8 136.267 142.8C125.734 142.8 116.267 140.467 107.867 135.8C99.6005 131 93.0672 124.333 88.2672 115.8C83.6005 107.133 81.2672 97.1333 81.2672 85.8C81.2672 74.4667 83.5339 64.5333 88.0672 56C92.7339 47.3333 99.2005 40.6667 107.467 36C115.867 31.3333 125.467 29 136.267 29C146.667 29 155.934 31.2667 164.067 35.8C172.201 40.3333 178.534 46.7333 183.067 55C187.601 63.1333 189.867 72.5333 189.867 83.2ZM166.067 76C165.934 67.6 162.934 60.8667 157.067 55.8C151.201 50.7333 143.934 48.2 135.267 48.2C127.401 48.2 120.667 50.7333 115.067 55.8C109.467 60.7333 106.134 67.4667 105.067 76H166.067ZM238.905 49.4V110.4C238.905 114.533 239.838 117.533 241.705 119.4C243.705 121.133 247.038 122 251.705 122H265.705V141H247.705C237.438 141 229.571 138.6 224.105 133.8C218.638 129 215.905 121.2 215.905 110.4V49.4H202.905V30.8H215.905V3.4H238.905V30.8H265.705V49.4H238.905ZM326.719 142.8C318.052 142.8 310.252 141.267 303.319 138.2C296.519 135 291.119 130.733 287.119 125.4C283.119 119.933 280.985 113.867 280.719 107.2H304.319C304.719 111.867 306.919 115.8 310.919 119C315.052 122.067 320.185 123.6 326.319 123.6C332.719 123.6 337.652 122.4 341.119 120C344.719 117.467 346.519 114.267 346.519 110.4C346.519 106.267 344.519 103.2 340.519 101.2C336.652 99.2 330.452 97 321.919 94.6C313.652 92.3333 306.919 90.1333 301.719 88C296.519 85.8667 291.985 82.6 288.119 78.2C284.385 73.8 282.519 68 282.519 60.8C282.519 54.9333 284.252 49.6 287.719 44.8C291.185 39.8667 296.119 36 302.519 33.2C309.052 30.4 316.519 29 324.919 29C337.452 29 347.519 32.2 355.119 38.6C362.852 44.8667 366.985 53.4667 367.519 64.4H344.719C344.319 59.4667 342.319 55.5333 338.719 52.6C335.119 49.6667 330.252 48.2 324.119 48.2C318.119 48.2 313.519 49.3333 310.319 51.6C307.119 53.8667 305.519 56.8667 305.519 60.6C305.519 63.5333 306.585 66 308.719 68C310.852 70 313.452 71.6 316.519 72.8C319.585 73.8667 324.119 75.2667 330.119 77C338.119 79.1333 344.652 81.3333 349.719 83.6C354.919 85.7333 359.385 88.9333 363.119 93.2C366.852 97.4667 368.785 103.133 368.919 110.2C368.919 116.467 367.185 122.067 363.719 127C360.252 131.933 355.319 135.8 348.919 138.6C342.652 141.4 335.252 142.8 326.719 142.8Z" fill="black"/>
<path d="M475.955 69C484.088 70.7333 490.621 74.8 495.555 81.2C500.488 87.4667 502.955 94.6667 502.955 102.8C502.955 114.533 498.821 123.867 490.555 130.8C482.421 137.6 471.021 141 456.355 141H390.955V0.599996H454.155C468.421 0.599996 479.555 3.86666 487.555 10.4C495.688 16.9333 499.755 25.8 499.755 37C499.755 45.2667 497.555 52.1333 493.155 57.6C488.888 63.0667 483.155 66.8667 475.955 69ZM425.155 57.4H447.555C453.155 57.4 457.421 56.2 460.355 53.8C463.421 51.2667 464.955 47.6 464.955 42.8C464.955 38 463.421 34.3333 460.355 31.8C457.421 29.2667 453.155 28 447.555 28H425.155V57.4ZM450.355 113.4C456.088 113.4 460.488 112.133 463.555 109.6C466.755 106.933 468.355 103.133 468.355 98.2C468.355 93.2667 466.688 89.4 463.355 86.6C460.155 83.8 455.688 82.4 449.955 82.4H425.155V113.4H450.355ZM632.991 29.4V141H598.791V125.8C595.324 130.733 590.591 134.733 584.591 137.8C578.724 140.733 572.191 142.2 564.991 142.2C556.457 142.2 548.924 140.333 542.391 136.6C535.857 132.733 530.791 127.2 527.191 120C523.591 112.8 521.791 104.333 521.791 94.6V29.4H555.791V90C555.791 97.4667 557.724 103.267 561.591 107.4C565.457 111.533 570.657 113.6 577.191 113.6C583.857 113.6 589.124 111.533 592.991 107.4C596.857 103.267 598.791 97.4667 598.791 90V29.4H632.991ZM771.556 29.4L701.556 194H664.756L690.356 137.2L644.956 29.4H683.156L708.956 99.2L734.556 29.4H771.556Z" fill="#F14866"/>
</svg>
